<?xml version="1.0" encoding="UTF-8"?>
<!DOCTYPE svg PUBLIC "-//W3C//DTD SVG 1.1//EN" "http://www.w3.org/Graphics/SVG/1.1/DTD/svg11.dtd">
<!-- Creator: CorelDRAW 2021 (64-Bit) -->
<svg xmlns="http://www.w3.org/2000/svg" xml:space="preserve" width="79.375mm" height="79.375mm" version="1.1" style="shape-rendering:geometricPrecision; text-rendering:geometricPrecision; image-rendering:optimizeQuality; fill-rule:evenodd; clip-rule:evenodd"
viewBox="0 0 485.23 485.23"
 xmlns:xlink="http://www.w3.org/1999/xlink"
 xmlns:xodm="http://www.corel.com/coreldraw/odm/2003">
 <defs>
  <style type="text/css">
   <![CDATA[
    .fil4 {fill:none;fill-rule:nonzero}
    .fil6 {fill:#38D200}
    .fil3 {fill:#C5FAB1}
    .fil5 {fill:#38D200;fill-rule:nonzero}
    .fil2 {fill:#C5FAB1;fill-rule:nonzero}
    .fil0 {fill:#D7FFC9;fill-rule:nonzero}
    .fil1 {fill:#FAFAFA;fill-rule:nonzero;fill-opacity:0.000000}
   ]]>
  </style>
   <clipPath id="id0" style="clip-rule:nonzero">
    <path d="M16.17 4.85l452.89 0c6.25,0 11.32,5.07 11.32,11.32l0 452.89c0,6.25 -5.07,11.32 -11.32,11.32l-452.89 0c-6.25,-0 -11.32,-5.07 -11.32,-11.32l-0 -452.89c0,-6.25 5.07,-11.32 11.32,-11.32z"/>
   </clipPath>
   <clipPath id="id1" style="clip-rule:nonzero">
    <path d="M16.17 4.85l452.89 0c6.25,0 11.32,5.07 11.32,11.32l0 452.89c0,6.25 -5.07,11.32 -11.32,11.32l-452.89 0c-6.25,-0 -11.32,-5.07 -11.32,-11.32l-0 -452.89c0,-6.25 5.07,-11.32 11.32,-11.32z"/>
   </clipPath>
 </defs>
 <g id="Layer_x0020_1">
  <metadata id="CorelCorpID_0Corel-Layer"/>
  <path class="fil0" d="M16.17 0l452.89 0c8.93,0 16.17,7.24 16.17,16.17l0 452.89c0,8.93 -7.24,16.17 -16.17,16.17l-452.89 0c-8.93,-0 -16.17,-7.24 -16.17,-16.17l-0 -452.89c0,-8.93 7.24,-16.17 16.17,-16.17z"/>
  <g style="clip-path:url(#id0)">
   <polygon class="fil1" points="4.85,4.85 480.38,4.85 480.38,480.38 4.85,480.38 "/>
  </g>
  <g style="clip-path:url(#id1)">
   <g id="_2307320748832">
    <g>
     <path id="_1" class="fil2" d="M-8.28 140.4c0.47,-0.15 1.81,-0.95 2.19,-1.3 0.46,-0.55 1.4,-2.49 1.5,-3.2 -0.21,-2 -0.33,-2.95 -1.82,-4.46 -1.47,-1.49 -5.31,-1.49 -6.78,0 -2.31,2.34 -2.3,5.3 -0.21,7.8 1.13,1.35 4.17,1.11 5.11,1.16z"/>
     <path class="fil2" d="M205.38 345.67c0,35.03 -9.96,63.63 -29.77,85.54 -28.71,31.87 -72.42,47.81 -131.24,47.81l-194.76 0 0 -80c13.08,0.72 30.02,0.06 39.86,0.04 12.23,-0.02 24.46,-0.16 36.69,-0.24 5.07,8.69 12.15,16.75 18.64,21.93 22.75,18.17 57.98,21.35 82.85,5.64 3.15,-1.99 6.33,-3.97 9.17,-6.4 7.59,-6.48 13.07,-12.9 17.92,-21.23 7.4,-0.01 14.8,-0.01 22.21,0.02 10.05,0.05 19.02,-1.75 27.08,-8.06 7.89,-6.15 12.8,-15.26 13.68,-25.21 0.06,-0.64 0.08,-1.19 0.08,-1.83l0 -2.79c0,-0.64 -0.02,-1.19 -0.08,-1.83 -0.88,-9.96 -5.8,-19.06 -13.68,-25.22 -8.07,-6.31 -17.03,-8.11 -27.08,-8.06 -7.44,0.04 -14.89,0.03 -22.33,0.02 -0.06,-0.1 -0.12,-0.21 -0.18,-0.32 -6.96,-12.11 -14,-18.8 -25.5,-26.47 -18.1,-12.05 -44.63,-14.2 -64.69,-6.06 -14.63,5.93 -24.43,13.46 -33.85,26.17 -1.38,1.86 -2.83,4.14 -4.2,6.63 -12.11,-0.06 -24.23,-0.19 -36.36,-0.21 -9.98,-0.02 -27.15,-0.74 -40.2,-0.02l0 -315.48 107.25 0c0.07,21 0.18,41.99 0.21,62.99 -8.95,4.88 -17.48,12.26 -22.68,18.79 -17.28,21.62 -20.39,55.29 -5.44,78.94 1.89,3 3.81,6.07 6.1,8.77 6.67,7.8 13.21,13.25 22.05,18.16 0,8.07 0.01,16.13 -0.03,24.19 -0.05,9.27 1.5,17.54 7.33,24.99 5.59,7.15 13.83,11.6 22.86,12.38 0.54,0.06 1,0.08 1.54,0.08l2.79 0c0.55,0 1,-0.02 1.54,-0.08 9.02,-0.78 17.26,-5.23 22.85,-12.38 5.82,-7.45 7.39,-15.72 7.34,-24.99 -0.04,-8.12 -0.04,-16.24 -0.02,-24.37 0.63,-0.34 1.32,-0.7 2.01,-1.1 11.64,-6.68 17.96,-13.37 25.34,-24.44 11.42,-17.16 13.44,-42.52 5.74,-61.55 -5.69,-14.05 -12.83,-23.37 -25.05,-32.41 -2.16,-1.59 -4.97,-3.32 -8.04,-4.91 0.03,-21.02 0.13,-42.04 0.19,-63.06l6.81 0c88.12,0 132.19,40.78 132.19,122.34 0,24.5 -4.81,45 -14.42,61.52 -7.96,13.94 -20.27,25.78 -36.91,35.62 37.03,7.85 62.34,22.85 75.93,45 12.18,20.39 18.28,44.17 18.28,71.13zm-213.31 15.85c-0.13,-0.25 -0.25,-0.48 -0.21,-0.49 -0.13,-0.03 -0.97,-0.45 -1,-0.59 -0.11,0.06 -0.95,0.14 -1.39,0.32 -0.21,0.13 -0.41,0.36 -0.53,0.47 -0.24,0.4 -0.24,1.69 0,2.09 0.93,0.93 1.84,0.94 2.93,0.17 0.1,-0.64 0.15,-1.46 0.19,-1.98z"/>
     <path class="fil3" d="M-7.66 157.75c-7.48,0 -13.86,-1.11 -19.07,-7.32 -7.98,-9.52 -7.35,-22.63 1.2,-31.24 8.28,-8.34 23.18,-8.34 31.47,0 3.82,3.85 6.14,8.03 6.82,15.31 0.55,5.86 -2.78,12.54 -5.62,15.93 -2.69,3.21 -9.25,7.32 -14.79,7.32zm-4.23 -183.27l4.13 0c5.99,0.82 11.58,5.23 13.16,13.33 1.33,6.85 0.5,85.82 0.5,97.17 3.81,0.32 12.44,5.07 15.08,7.03 9.77,7.24 14.82,13.97 19.28,24.96 5.54,13.68 4.13,33.01 -4.1,45.37 -5.95,8.94 -10.21,13.65 -19.52,19 -7,4.02 -5.57,2.48 -10.74,4.96 0,11.89 -0.04,23.79 0.02,35.68 0.03,6.37 -0.82,10.58 -3.65,14.19 -2.72,3.49 -6.63,5.42 -10.67,5.77l-2.79 0c-4.03,-0.36 -7.94,-2.28 -10.66,-5.77 -2.83,-3.61 -3.68,-7.82 -3.65,-14.19 0.06,-11.89 0.02,-23.79 0.02,-35.68 -2.54,-1.22 -5.45,-1.91 -8.08,-3.33 -7.45,-4.01 -12.41,-8.03 -18.11,-14.71 -1.53,-1.78 -3.34,-4.71 -4.64,-6.78 -11.04,-17.47 -8.25,-43.05 4.31,-58.78 5.24,-6.56 18.42,-17.03 26.52,-17.71 0,-12.38 -0.97,-90.03 0.62,-97.76 1.58,-7.66 7.08,-11.94 12.99,-12.74z"/>
     <path class="fil2" d="M-4.53 360.77c-0.15,-0.47 -0.95,-1.81 -1.3,-2.19 -0.55,-0.46 -2.49,-1.4 -3.2,-1.5 -2,0.21 -2.95,0.33 -4.46,1.82 -1.49,1.47 -1.49,5.31 0,6.78 2.34,2.31 5.3,2.3 7.8,0.21 1.35,-1.13 1.11,-4.17 1.16,-5.11z"/>
     <path class="fil3" d="M12.82 360.15c0,7.48 -1.11,13.86 -7.32,19.07 -9.52,7.98 -22.63,7.35 -31.24,-1.2 -8.35,-8.28 -8.35,-23.18 0,-31.47 3.85,-3.82 8.03,-6.14 15.31,-6.82 5.86,-0.55 12.54,2.78 15.93,5.62 3.21,2.69 7.32,9.25 7.32,14.79zm-183.27 4.23l0 -4.12c0.82,-5.99 5.23,-11.58 13.33,-13.16 6.85,-1.33 85.82,-0.5 97.17,-0.5 0.32,-3.81 5.08,-12.44 7.03,-15.08 7.24,-9.77 13.97,-14.82 24.96,-19.28 13.68,-5.54 33.01,-4.12 45.37,4.1 8.94,5.95 13.65,10.21 19,19.52 4.02,7 2.48,5.57 4.96,10.74 11.89,0 23.79,0.04 35.68,-0.02 6.37,-0.03 10.58,0.82 14.19,3.65 3.49,2.72 5.42,6.63 5.77,10.67l0 2.79c-0.36,4.03 -2.28,7.94 -5.77,10.66 -3.61,2.83 -7.82,3.68 -14.19,3.65 -11.89,-0.06 -23.79,-0.02 -35.68,-0.02 -1.22,2.54 -1.91,5.45 -3.33,8.08 -4.01,7.45 -8.03,12.41 -14.71,18.11 -1.78,1.53 -4.71,3.34 -6.78,4.64 -17.47,11.04 -43.05,8.25 -58.78,-4.31 -6.56,-5.24 -17.03,-18.42 -17.71,-26.52 -12.38,0 -90.03,0.97 -97.76,-0.62 -7.66,-1.58 -11.94,-7.08 -12.74,-12.99z"/>
    </g>
   </g>
  </g>
  <path class="fil4" d="M16.17 4.85l452.89 0c6.25,0 11.32,5.07 11.32,11.32l0 452.89c0,6.25 -5.07,11.32 -11.32,11.32l-452.89 0c-6.25,-0 -11.32,-5.07 -11.32,-11.32l-0 -452.89c0,-6.25 5.07,-11.32 11.32,-11.32z"/>
  <g id="_2307320752624">
   <path class="fil5" d="M230.61 202.36c0.22,-0.07 0.85,-0.44 1.02,-0.61 0.21,-0.26 0.65,-1.16 0.7,-1.49 -0.1,-0.93 -0.16,-1.38 -0.85,-2.08 -0.69,-0.69 -2.48,-0.69 -3.16,0 -1.08,1.09 -1.07,2.47 -0.1,3.64 0.53,0.63 1.95,0.52 2.38,0.54z"/>
   <path class="fil5" d="M330.23 298.06c0,16.34 -4.64,29.67 -13.88,39.88 -13.39,14.86 -33.77,22.29 -61.19,22.29l-90.81 0 0 -37.3c6.1,0.34 14,0.03 18.58,0.02 5.7,-0.01 11.41,-0.07 17.11,-0.11 2.36,4.05 5.67,7.81 8.69,10.23 10.61,8.47 27.03,9.96 38.63,2.63 1.47,-0.93 2.95,-1.85 4.27,-2.98 3.54,-3.02 6.09,-6.01 8.36,-9.9 3.45,-0 6.9,-0 10.35,0.01 4.69,0.02 8.87,-0.82 12.63,-3.76 3.68,-2.87 5.97,-7.11 6.38,-11.75 0.03,-0.3 0.04,-0.55 0.04,-0.85l0 -1.3c0,-0.3 -0.01,-0.55 -0.04,-0.85 -0.41,-4.64 -2.7,-8.89 -6.38,-11.76 -3.76,-2.94 -7.94,-3.78 -12.63,-3.76 -3.47,0.02 -6.94,0.01 -10.41,0.01 -0.03,-0.05 -0.06,-0.1 -0.08,-0.15 -3.24,-5.64 -6.53,-8.77 -11.89,-12.34 -8.44,-5.62 -20.81,-6.62 -30.16,-2.83 -6.82,2.76 -11.39,6.28 -15.78,12.2 -0.64,0.87 -1.32,1.93 -1.96,3.09 -5.65,-0.03 -11.3,-0.09 -16.95,-0.1 -4.65,-0.01 -12.66,-0.34 -18.75,-0.01l0 -147.1 50.01 0c0.03,9.79 0.08,19.58 0.1,29.37 -4.17,2.27 -8.15,5.71 -10.58,8.76 -8.06,10.08 -9.51,25.78 -2.54,36.81 0.88,1.4 1.78,2.83 2.85,4.09 3.11,3.64 6.16,6.18 10.28,8.47 0,3.76 0,7.52 -0.01,11.28 -0.02,4.32 0.7,8.18 3.42,11.65 2.61,3.33 6.45,5.41 10.66,5.77 0.25,0.03 0.47,0.04 0.72,0.04l1.3 0c0.25,0 0.47,-0.01 0.72,-0.04 4.2,-0.37 8.05,-2.44 10.65,-5.77 2.71,-3.47 3.44,-7.33 3.42,-11.65 -0.02,-3.79 -0.02,-7.57 -0.01,-11.36 0.3,-0.16 0.62,-0.33 0.94,-0.51 5.43,-3.12 8.38,-6.23 11.82,-11.4 5.32,-8 6.27,-19.83 2.68,-28.7 -2.65,-6.55 -5.98,-10.9 -11.68,-15.11 -1.01,-0.74 -2.32,-1.55 -3.75,-2.29 0.01,-9.8 0.06,-19.6 0.09,-29.4l3.17 0c41.09,0 61.63,19.02 61.63,57.04 0,11.42 -2.24,20.98 -6.72,28.69 -3.71,6.5 -9.45,12.02 -17.21,16.61 17.27,3.66 29.07,10.65 35.41,20.98 5.68,9.51 8.52,20.59 8.52,33.16zm-99.46 7.39c-0.06,-0.12 -0.11,-0.22 -0.1,-0.23 -0.06,-0.01 -0.45,-0.21 -0.46,-0.27 -0.05,0.03 -0.44,0.07 -0.65,0.15 -0.1,0.06 -0.19,0.17 -0.25,0.22 -0.11,0.19 -0.11,0.79 0,0.97 0.44,0.43 0.86,0.44 1.37,0.08 0.05,-0.3 0.07,-0.68 0.09,-0.92z"/>
   <path class="fil6" d="M230.9 210.45c-3.49,0 -6.46,-0.52 -8.89,-3.41 -3.72,-4.44 -3.43,-10.55 0.56,-14.57 3.86,-3.89 10.81,-3.89 14.67,0 1.78,1.79 2.86,3.74 3.18,7.14 0.25,2.73 -1.3,5.85 -2.62,7.43 -1.26,1.5 -4.31,3.41 -6.9,3.41zm-1.97 -85.45l1.92 0c2.79,0.38 5.4,2.44 6.14,6.22 0.62,3.19 0.23,40.02 0.23,45.31 1.78,0.15 5.8,2.37 7.03,3.28 4.56,3.37 6.91,6.51 8.99,11.64 2.58,6.38 1.92,15.39 -1.91,21.15 -2.78,4.17 -4.76,6.36 -9.1,8.86 -3.26,1.88 -2.6,1.16 -5.01,2.31 0,5.54 -0.02,11.09 0.01,16.64 0.01,2.97 -0.38,4.93 -1.7,6.62 -1.27,1.63 -3.09,2.52 -4.98,2.69l-1.3 0c-1.88,-0.17 -3.7,-1.06 -4.97,-2.69 -1.32,-1.68 -1.72,-3.65 -1.7,-6.62 0.03,-5.54 0.01,-11.09 0.01,-16.64 -1.19,-0.57 -2.54,-0.89 -3.77,-1.55 -3.47,-1.87 -5.79,-3.74 -8.44,-6.86 -0.71,-0.83 -1.56,-2.2 -2.16,-3.16 -5.15,-8.14 -3.85,-20.07 2.01,-27.41 2.44,-3.06 8.59,-7.94 12.37,-8.26 0,-5.77 -0.45,-41.98 0.29,-45.58 0.73,-3.57 3.3,-5.57 6.06,-5.94z"/>
   <path class="fil5" d="M232.36 305.11c-0.07,-0.22 -0.44,-0.84 -0.61,-1.02 -0.26,-0.21 -1.16,-0.65 -1.49,-0.7 -0.93,0.1 -1.38,0.16 -2.08,0.85 -0.69,0.69 -0.69,2.48 0,3.16 1.09,1.08 2.47,1.07 3.64,0.1 0.63,-0.53 0.52,-1.95 0.54,-2.38z"/>
   <path class="fil6" d="M240.45 304.82c0,3.49 -0.52,6.46 -3.41,8.89 -4.44,3.72 -10.55,3.43 -14.57,-0.56 -3.89,-3.86 -3.89,-10.81 0,-14.67 1.79,-1.78 3.74,-2.86 7.14,-3.18 2.73,-0.25 5.85,1.3 7.43,2.62 1.5,1.26 3.41,4.31 3.41,6.9zm-85.45 1.97l0 -1.92c0.38,-2.79 2.44,-5.4 6.22,-6.14 3.19,-0.62 40.02,-0.23 45.31,-0.23 0.15,-1.78 2.37,-5.8 3.28,-7.03 3.37,-4.56 6.51,-6.91 11.64,-8.99 6.38,-2.58 15.39,-1.92 21.15,1.91 4.17,2.78 6.36,4.76 8.86,9.1 1.88,3.26 1.16,2.6 2.31,5.01 5.54,0 11.09,0.02 16.64,-0.01 2.97,-0.01 4.93,0.38 6.62,1.7 1.63,1.27 2.52,3.09 2.69,4.98l0 1.3c-0.17,1.88 -1.06,3.7 -2.69,4.97 -1.68,1.32 -3.65,1.72 -6.62,1.7 -5.54,-0.03 -11.09,-0.01 -16.64,-0.01 -0.57,1.19 -0.89,2.54 -1.55,3.77 -1.87,3.47 -3.74,5.79 -6.86,8.44 -0.83,0.71 -2.2,1.56 -3.16,2.16 -8.14,5.15 -20.07,3.85 -27.41,-2.01 -3.06,-2.44 -7.94,-8.59 -8.26,-12.37 -5.77,0 -41.98,0.45 -45.58,-0.29 -3.57,-0.73 -5.57,-3.3 -5.94,-6.06z"/>
  </g>
 </g>
</svg>
