<?xml version="1.0" encoding="UTF-8"?>
<!DOCTYPE svg PUBLIC "-//W3C//DTD SVG 1.1//EN" "http://www.w3.org/Graphics/SVG/1.1/DTD/svg11.dtd">
<!-- Creator: CorelDRAW 2021 (64-Bit) -->
<svg xmlns="http://www.w3.org/2000/svg" xml:space="preserve" width="79.375mm" height="79.375mm" version="1.1" style="shape-rendering:geometricPrecision; text-rendering:geometricPrecision; image-rendering:optimizeQuality; fill-rule:evenodd; clip-rule:evenodd"
viewBox="0 0 454.16 454.16"
 xmlns:xlink="http://www.w3.org/1999/xlink"
 xmlns:xodm="http://www.corel.com/coreldraw/odm/2003">
 <defs>
  <style type="text/css">
   <![CDATA[
    .fil4 {fill:none;fill-rule:nonzero}
    .fil6 {fill:#FF6600}
    .fil3 {fill:#FFDBC4}
    .fil5 {fill:#FF6600;fill-rule:nonzero}
    .fil2 {fill:#FFDBC4;fill-rule:nonzero}
    .fil0 {fill:#FFECE0;fill-rule:nonzero}
    .fil1 {fill:#6DB8A0;fill-rule:nonzero;fill-opacity:0.000000}
   ]]>
  </style>
   <clipPath id="id0" style="clip-rule:nonzero">
    <path d="M15.14 4.54l423.88 0c5.85,0 10.6,4.75 10.6,10.6l0 423.88c0,5.85 -4.75,10.6 -10.6,10.6l-423.88 0c-5.85,-0 -10.6,-4.75 -10.6,-10.6l-0 -423.88c0,-5.85 4.75,-10.6 10.6,-10.6z"/>
   </clipPath>
   <clipPath id="id1" style="clip-rule:nonzero">
    <path d="M15.14 4.54l423.88 0c5.85,0 10.6,4.75 10.6,10.6l0 423.88c0,5.85 -4.75,10.6 -10.6,10.6l-423.88 0c-5.85,-0 -10.6,-4.75 -10.6,-10.6l-0 -423.88c0,-5.85 4.75,-10.6 10.6,-10.6z"/>
   </clipPath>
 </defs>
 <g id="Layer_x0020_1">
  <metadata id="CorelCorpID_0Corel-Layer"/>
  <path class="fil0" d="M15.14 0l423.88 0c8.36,0 15.14,6.78 15.14,15.14l0 423.88c0,8.36 -6.78,15.14 -15.14,15.14l-423.88 0c-8.36,-0 -15.14,-6.78 -15.14,-15.14l-0 -423.88c0,-8.36 6.78,-15.14 15.14,-15.14z"/>
  <g style="clip-path:url(#id0)">
   <polygon class="fil1" points="4.54,4.54 449.62,4.54 449.62,449.62 4.54,449.62 "/>
  </g>
  <g style="clip-path:url(#id1)">
   <g id="_2386320343632">
    <g>
     <path id="_1" class="fil2" d="M17.6 316.27c0,18.03 6.73,33.55 20.19,46.49 13.28,13.03 29.07,19.5 47.27,19.5 18.38,0 34.16,-6.47 47.53,-19.5 13.45,-12.94 20.18,-28.47 20.18,-46.49 0,-11.73 -3.1,-22.51 -9.31,-32.35 -6.3,-9.92 -14.58,-17.86 -25.01,-23.72 -6.45,-3.66 -13.21,-6.21 -20.27,-7.61l0 -73.73c14.6,1.16 28.93,4.26 42.95,9.31 17.68,6.55 33.64,16.21 47.79,29.07 13.97,12.6 24.84,27.35 32.6,44.26 7.93,16.99 11.9,35.27 11.9,54.77 0,20.1 -3.88,38.47 -11.64,55.12 -7.76,16.65 -18.72,31.49 -32.86,44.52 -14.32,12.93 -30.28,22.6 -47.79,29.07 -17.69,6.9 -36.41,10.35 -56.07,10.35 -25.79,0 -50.11,-6.12 -73.06,-18.2 -22.95,-11.99 -41.06,-28.47 -54.61,-49.6 -13.45,-20.7 -20.27,-43.82 -20.44,-69.44l0 -143.13 80.65 0 -0.08 0 0 80.65 0.08 60.67z"/>
     <rect class="fil3" x="17.6" y="94.3" width="80.65" height="80.65"/>
     <rect class="fil3" x="-63.13" y="13.65" width="80.65" height="80.65"/>
    </g>
   </g>
  </g>
  <path class="fil4" d="M15.14 4.54l423.88 0c5.85,0 10.6,4.75 10.6,10.6l0 423.88c0,5.85 -4.75,10.6 -10.6,10.6l-423.88 0c-5.85,-0 -10.6,-4.75 -10.6,-10.6l-0 -423.88c0,-5.85 4.75,-10.6 10.6,-10.6z"/>
  <g id="_2386320344064">
   <path class="fil5" d="M194.3 266.77c0,8.75 3.27,16.28 9.8,22.56 6.45,6.32 14.11,9.46 22.94,9.46 8.92,0 16.58,-3.14 23.07,-9.46 6.53,-6.28 9.79,-13.81 9.79,-22.56 0,-5.69 -1.5,-10.93 -4.52,-15.7 -3.06,-4.81 -7.07,-8.67 -12.14,-11.51 -3.13,-1.78 -6.41,-3.01 -9.84,-3.69l0 -35.78c7.09,0.56 14.04,2.07 20.85,4.52 8.58,3.18 16.33,7.87 23.19,14.11 6.78,6.11 12.05,13.27 15.82,21.48 3.85,8.24 5.78,17.12 5.78,26.58 0,9.75 -1.88,18.67 -5.65,26.75 -3.77,8.08 -9.09,15.28 -15.95,21.6 -6.95,6.28 -14.7,10.97 -23.19,14.11 -8.58,3.35 -17.67,5.02 -27.21,5.02 -12.52,0 -24.32,-2.97 -35.45,-8.83 -11.14,-5.82 -19.93,-13.82 -26.5,-24.07 -6.53,-10.05 -9.84,-21.27 -9.92,-33.7l0 -69.46 39.14 0 -0.04 0 0 39.14 0.04 29.44z"/>
   <rect class="fil6" x="194.3" y="159.05" width="39.14" height="39.14"/>
   <rect class="fil6" x="155.12" y="119.91" width="39.14" height="39.14"/>
  </g>
 </g>
</svg>
