<?xml version="1.0" encoding="utf-8"?>
<!-- Generator: Adobe Illustrator 26.0.1, SVG Export Plug-In . SVG Version: 6.00 Build 0)  -->
<svg version="1.1" id="Layer_1" xmlns:xodm="http://www.corel.com/coreldraw/odm/2003"
	 xmlns="http://www.w3.org/2000/svg" xmlns:xlink="http://www.w3.org/1999/xlink" x="0px" y="0px" viewBox="0 0 225 225"
	 style="enable-background:new 0 0 225 225;" xml:space="preserve">
<style type="text/css">
	.st0{fill:#FEFED8;}
	.st1{fill-rule:evenodd;clip-rule:evenodd;fill:#FFC30C;}
	.st2{fill-rule:evenodd;clip-rule:evenodd;}
	.st3{fill:#111821;}
	.st4{opacity:0.3;clip-path:url(#SVGID_00000101088409805147032960000006618189707299374502_);}
</style>
<g>
	<g>
		<g>
			<path id="SVGID_1_" class="st0" d="M7.5,2.3h210c2.9,0,5.2,2.4,5.2,5.2v210c0,2.9-2.4,5.2-5.2,5.2H7.5c-2.9,0-5.2-2.4-5.2-5.2
				V7.5C2.3,4.6,4.6,2.3,7.5,2.3z"/>
		</g>
	</g>
</g>
<g>
	<path class="st1" d="M120.1,96c1.5-0.4,3.1-0.6,4.6-0.8c-1.5,0.1-3.1,0.4-4.6,0.6V96z M113.3,97.8c1.5-0.5,3.1-1,4.8-1.3l-0.1-0.4
		c-1.7,0.4-3.3,0.7-4.9,1.1L113.3,97.8z M101.4,102.7c2.5-1.3,5.1-2.4,7.7-3.3l-0.4-0.8c-2.9,0.8-5.6,1.9-8.3,3.1L101.4,102.7z
		 M85.4,113.1c3.3-2.7,6.9-5.2,10.6-7.5l-1.1-1.4c-4.1,2.1-7.9,4.5-11.4,7.4L85.4,113.1z M70.8,128.9c3-4.3,6.4-8.2,10.1-11.8
		l-2.3-1.7c-4.1,3.6-7.9,7.6-11.2,12L70.8,128.9z M46.1,145c17-32.7,43.3-49.8,83.9-50.4C105.5,99.4,83.3,117.7,72,145h-9.9
		c1.5-3.9,3.5-7.6,5.6-11.2l-3.7-1.5c-2.7,4.1-5.2,8.2-7.5,12.8H46.1z"/>
	<g>
		<g>
			<path class="st2" d="M98.2,113.1h25.8l2.9-12.6H118C110.2,103.5,104,108.1,98.2,113.1 M75.9,145h3.9l3.3-14.4
				C80.2,134.9,77.6,139.6,75.9,145z M73.8,65.5l-12,51.7c8.5-8.5,18.8-14.7,29-18.2l3.8-16.2h42.4l4.1-17.2H98.7H73.8V65.5z"/>
			<path d="M133.2,144.9l15.1-56.6h-9.8l6.2-22.7h34.1l-21.3,79.3H133.2z"/>
		</g>
	</g>
	<g id="element-id-35013">
		<path id="element-id-49032" class="st3" d="M57.7,150.6l-1.3,5.1h-2.6l1.1-3.8h-5.2l-2,7.6h11.8l1.7-1.3l2.7-10.1l-1-1.3H46.1
			l3.6,3.8L57.7,150.6z"/>
		<path id="element-id-32395" class="st3" d="M77.4,150.6l1.1-3.8H66.7l-1.7,1.3l-2.7,10.1l1,1.3h11.8l1.1-3.8h-7.9l0.4-1.3h6.6
			l0.7-2.5h-6.6l0.4-1.3H77.4z"/>
		<path id="element-id-14006" class="st3" d="M85.3,146.8h-5.2l-3.5,12.6h11.8l1.1-3.8h-6.6L85.3,146.8z"/>
		<path id="element-id-18349" class="st3" d="M90,159.5h5.2l3.5-12.6h-5.2L90,159.5z"/>
		<path id="element-id-89360" class="st3" d="M104.9,159.5l6.3-4.9l2.1-7.7h-5.2l-1.8,6.8c-1.8,1.3-0.8,0.7-2.6,2h-0.5l2.4-8.8h-5.2
			l-3.1,11.4l1,1.3h6.7V159.5z"/>
		<path id="element-id-12833" class="st3" d="M126.9,150.6l1.1-3.8h-11.8l-1.7,1.3l-2.7,10.1l1,1.3h11.8l1.1-3.8h-7.9l0.4-1.3h6.6
			l0.7-2.5h-6.6l0.4-1.3H126.9z"/>
		<path id="element-id-33986" class="st3" d="M139.2,159.5l1.3-5.1l-1-1.3l1.7-1.3l1.1-3.8l-1-1.3h-11.8l-3.5,12.6h5.2l1.1-3.8h2.6
			l-1.1,3.8h5.2V159.5z M136,151.8h-2.6l0.4-1.3h2.6L136,151.8z"/>
		<path id="element-id-28956" class="st3" d="M152.7,159.5l1.7-1.3l3.1-11.4h-5.2l-1.3,4.8h-2.6l1.3-4.8h-5.2l-1.8,6.8l1,1.3h6.6
			l-0.4,1.3h-8l-0.8,3.3H152.7z"/>
	</g>
</g>
<g>
	<g>
		<defs>
			<path id="SVGID_00000063633782732458221480000013536924810080486544_" d="M7.5,2.3h210c2.9,0,5.2,2.4,5.2,5.2v210
				c0,2.9-2.4,5.2-5.2,5.2H7.5c-2.9,0-5.2-2.4-5.2-5.2V7.5C2.3,4.6,4.6,2.3,7.5,2.3z"/>
		</defs>
		<clipPath id="SVGID_00000129892648135922307580000003500688891533879720_">
			<use xlink:href="#SVGID_00000063633782732458221480000013536924810080486544_"  style="overflow:visible;"/>
		</clipPath>
		<g style="opacity:0.3;clip-path:url(#SVGID_00000129892648135922307580000003500688891533879720_);">
			<path class="st1" d="M137.4,14.6c4.4-1,8.9-1.8,13.4-2.5c-4.6,0.5-9.1,1.1-13.6,1.8L137.4,14.6z M117.8,19.7
				c4.6-1.4,9.2-2.7,13.8-3.8l-0.3-1c-4.8,0.9-9.6,1.9-14.3,3.1L117.8,19.7z M82.9,33.6c7.4-3.6,14.9-6.9,22.6-9.7l-1.1-2.4
				C96.1,24,88,26.9,80.2,30.3L82.9,33.6z M36.6,63.4c9.7-8,20-15.1,30.8-21.4l-3.3-4.1c-11.7,6-22.9,13.1-33.4,21L36.6,63.4z
				 M-5.9,108.8C2.9,96.5,12.7,85.2,23.5,75l-6.4-5C5.3,80.4-5.7,92-15.6,104.6L-5.9,108.8z M-77.7,155.3
				C-28.2,61.4,48,12.2,166.1,10.4C94.8,24.2,30.4,77-2.6,155.3h-28.9c4.6-11.2,10-22,16.2-32.1l-10.6-4.5
				c-7.9,11.5-15.2,23.7-21.7,36.6H-77.7z"/>
		</g>
	</g>
</g>
</svg>
