<?xml version="1.0" encoding="UTF-8"?>
<!DOCTYPE svg PUBLIC "-//W3C//DTD SVG 1.1//EN" "http://www.w3.org/Graphics/SVG/1.1/DTD/svg11.dtd">
<!-- Creator: CorelDRAW 2021 (64-Bit) -->
<svg xmlns="http://www.w3.org/2000/svg" xml:space="preserve" width="79.375mm" height="79.375mm" version="1.1" style="shape-rendering:geometricPrecision; text-rendering:geometricPrecision; image-rendering:optimizeQuality; fill-rule:evenodd; clip-rule:evenodd"
viewBox="0 0 427.95 427.95"
 xmlns:xlink="http://www.w3.org/1999/xlink"
 xmlns:xodm="http://www.corel.com/coreldraw/odm/2003">
 <defs>
  <style type="text/css">
   <![CDATA[
    .fil3 {fill:none;fill-rule:nonzero}
    .fil4 {fill:#EF3B23}
    .fil2 {fill:#FCCEC7}
    .fil0 {fill:#FCE1DD;fill-rule:nonzero}
    .fil1 {fill:#FAFAFA;fill-rule:nonzero;fill-opacity:0.000000}
   ]]>
  </style>
   <clipPath id="id0" style="clip-rule:nonzero">
    <path d="M14.26 4.28l399.42 0c5.51,0 9.99,4.47 9.99,9.99l0 399.42c0,5.51 -4.47,9.98 -9.99,9.98l-399.42 0c-5.51,-0 -9.98,-4.47 -9.98,-9.99l-0 -399.42c0,-5.51 4.47,-9.99 9.99,-9.99z"/>
   </clipPath>
   <clipPath id="id1" style="clip-rule:nonzero">
    <path d="M14.26 4.28l399.42 0c5.51,0 9.99,4.47 9.99,9.99l0 399.42c0,5.51 -4.47,9.98 -9.99,9.98l-399.42 0c-5.51,-0 -9.98,-4.47 -9.98,-9.99l-0 -399.42c0,-5.51 4.47,-9.99 9.99,-9.99z"/>
   </clipPath>
 </defs>
 <g id="Layer_x0020_1">
  <metadata id="CorelCorpID_0Corel-Layer"/>
  <path class="fil0" d="M14.26 0l399.42 0c7.88,0 14.26,6.39 14.26,14.26l0 399.42c0,7.88 -6.39,14.26 -14.26,14.26l-399.42 0c-7.88,-0 -14.26,-6.39 -14.26,-14.27l-0 -399.42c0,-7.88 6.39,-14.26 14.27,-14.26z"/>
  <g style="clip-path:url(#id0)">
   <polygon class="fil1" points="4.28,4.28 423.67,4.28 423.67,423.67 4.28,423.67 "/>
  </g>
  <g style="clip-path:url(#id1)">
   <g id="_2307308169056">
    <path id="_1" class="fil2" d="M34.13 -11.27l-6.08 362.65c-51.46,-9.16 -107.17,-72.04 -106.9,-110.67 15.9,-5.81 36.27,-7.04 53.61,-19.32l0.37 -77.63c-29.64,20.58 -59.78,32.04 -93.13,30.72l-32.52 -1.15c1.4,26.97 -9.17,34.7 6.45,93.47 28.39,106.82 144.07,174.54 243.44,155.97l0.92 -362.49c40.76,-1.78 112.54,64.46 114.11,116.72 -18.21,7.04 -38.41,7.53 -57.07,20.95l1.06 75.54c21.89,-4.87 31,-32.11 107.42,-29.36 8.16,0.29 8.58,1.99 16.55,0.83 23.88,-122.58 -58.75,-242.38 -200.82,-258.19 -20.1,-2.24 -30.75,2.21 -47.42,1.97z"/>
   </g>
  </g>
  <path class="fil3" d="M14.26 4.28l399.42 0c5.51,0 9.99,4.47 9.99,9.99l0 399.42c0,5.51 -4.47,9.98 -9.99,9.98l-399.42 0c-5.51,-0 -9.98,-4.47 -9.98,-9.99l-0 -399.42c0,-5.51 4.47,-9.99 9.99,-9.99z"/>
  <path class="fil4" d="M199.59 118.5l-2.67 159.38c-22.62,-4.03 -47.1,-31.66 -46.98,-48.64 6.99,-2.55 15.94,-3.09 23.56,-8.49l0.16 -34.12c-13.03,9.05 -26.27,14.08 -40.93,13.5l-14.29 -0.51c0.62,11.85 -4.03,15.25 2.84,41.08 12.48,46.95 63.32,76.71 106.99,68.55l0.41 -159.31c17.92,-0.78 49.46,28.33 50.15,51.3 -8,3.09 -16.88,3.31 -25.08,9.21l0.47 33.2c9.62,-2.14 13.62,-14.11 47.21,-12.91 3.58,0.13 3.77,0.88 7.27,0.37 10.5,-53.88 -25.82,-106.53 -88.26,-113.48 -8.83,-0.98 -13.51,0.97 -20.84,0.87z"/>
 </g>
</svg>
