<?xml version="1.0" encoding="UTF-8"?>
<!DOCTYPE svg PUBLIC "-//W3C//DTD SVG 1.1//EN" "http://www.w3.org/Graphics/SVG/1.1/DTD/svg11.dtd">
<!-- Creator: CorelDRAW 2021 (64-Bit) -->
<svg xmlns="http://www.w3.org/2000/svg" xml:space="preserve" width="79.375mm" height="79.375mm" version="1.1" style="shape-rendering:geometricPrecision; text-rendering:geometricPrecision; image-rendering:optimizeQuality; fill-rule:evenodd; clip-rule:evenodd"
viewBox="0 0 403.39 403.39"
 xmlns:xlink="http://www.w3.org/1999/xlink"
 xmlns:xodm="http://www.corel.com/coreldraw/odm/2003">
 <defs>
  <style type="text/css">
   <![CDATA[
    .fil3 {fill:none;fill-rule:nonzero}
    .fil2 {fill:#A8D5C5}
    .fil4 {fill:#6DB8A0}
    .fil0 {fill:#BCDFD3;fill-rule:nonzero}
    .fil1 {fill:#6DB8A0;fill-rule:nonzero;fill-opacity:0.000000}
   ]]>
  </style>
   <clipPath id="id0" style="clip-rule:nonzero">
    <path d="M13.45 4.03l376.5 0c5.2,0 9.41,4.22 9.41,9.41l0 376.5c0,5.2 -4.22,9.41 -9.41,9.41l-376.5 0c-5.2,-0 -9.41,-4.22 -9.41,-9.41l-0 -376.5c0,-5.2 4.22,-9.41 9.41,-9.41z"/>
   </clipPath>
   <clipPath id="id1" style="clip-rule:nonzero">
    <path d="M13.45 4.03l376.5 0c5.2,0 9.41,4.22 9.41,9.41l0 376.5c0,5.2 -4.22,9.41 -9.41,9.41l-376.5 0c-5.2,-0 -9.41,-4.22 -9.41,-9.41l-0 -376.5c0,-5.2 4.22,-9.41 9.41,-9.41z"/>
   </clipPath>
 </defs>
 <g id="Layer_x0020_1">
  <metadata id="CorelCorpID_0Corel-Layer"/>
  <path class="fil0" d="M13.45 0l376.5 0c7.42,0 13.45,6.02 13.45,13.45l0 376.5c0,7.42 -6.02,13.45 -13.45,13.45l-376.5 0c-7.42,-0 -13.45,-6.02 -13.45,-13.45l-0 -376.5c0,-7.42 6.02,-13.45 13.45,-13.45z"/>
  <g style="clip-path:url(#id0)">
   <polygon class="fil1" points="4.03,4.03 399.36,4.03 399.36,399.36 4.03,399.36 "/>
  </g>
  <g style="clip-path:url(#id1)">
   <g id="_2287375116752">
    <g>
     <path id="_1" class="fil2" d="M61.35 172.58l0 -13.07 -26.17 0c-4.2,0 -7.63,-3.43 -7.63,-7.63l0 -0c0,-4.2 3.43,-7.63 7.63,-7.63l26.17 0 0 -13.06 -26.17 0c-4.2,0 -7.63,-3.43 -7.63,-7.63l0 -0c0,-4.2 3.43,-7.63 7.63,-7.63l26.17 0 0 -13.07 -26.17 0c-4.2,0 -7.63,-3.43 -7.63,-7.63l0 -0c0,-4.2 3.43,-7.63 7.63,-7.63l25.56 0c-3.7,-23.05 -23.73,-40.71 -47.8,-40.71 -24.07,0 -44.1,17.66 -47.8,40.71l25.43 0c4.2,0 7.63,3.43 7.63,7.63l0 0c0,4.2 -3.43,7.63 -7.63,7.63l-26.05 0 0 13.07 26.05 0c4.2,0 7.63,3.43 7.63,7.63l0 0c0,4.2 -3.43,7.63 -7.63,7.63l-26.05 0 0 13.06 26.05 0c4.2,0 7.63,3.43 7.63,7.63l0 0c0,4.2 -3.43,7.63 -7.63,7.63l-26.05 0 0 13.07 26.05 0c4.2,0 7.63,3.43 7.63,7.63l0 0c0,4.2 -3.43,7.63 -7.63,7.63l-25.23 0c4.2,22.45 23.94,39.51 47.6,39.51 23.65,0 43.4,-17.05 47.59,-39.51l-25.35 0c-4.2,0 -7.63,-3.43 -7.63,-7.63l0 -0c0,-4.2 3.43,-7.63 7.63,-7.63l26.17 0z"/>
     <path class="fil2" d="M23.48 382.85l0 -118.69c0,-4.92 -3.4,-9.19 -8.19,-10.29 -0.78,-0.18 -1.56,-0.27 -2.33,-0.27l-0.04 0c-3.97,0 -7.7,2.25 -9.5,5.95l-1.06 50.54 0 72.76c0,5.83 4.73,10.56 10.56,10.56 5.83,0 10.56,-4.73 10.56,-10.56z"/>
     <path class="fil2" d="M12.92 393.41l0.01 0 0.01 0 0.01 0 0.01 0 0.01 0 0.01 0 0.01 0 0.01 0 0.06 -0 -10.69 -10.69 0 0.13c0,5.83 4.73,10.56 10.56,10.56z"/>
     <path class="fil2" d="M2.36 378.23l0 4.5 10.69 10.69c1.33,-0.01 2.59,-0.28 3.76,-0.74l-14.45 -14.45z"/>
     <path class="fil2" d="M2.36 378.23l14.45 14.45c1.03,-0.41 1.99,-0.98 2.83,-1.67l-17.28 -17.28 0 4.5z"/>
     <path class="fil2" d="M2.36 369.22l0 4.5 17.28 17.28c0.82,-0.68 1.54,-1.48 2.13,-2.38l-19.4 -19.4z"/>
     <path class="fil2" d="M2.36 364.72l0 4.5 19.4 19.4c0.62,-0.95 1.09,-2 1.38,-3.12l-20.78 -20.78z"/>
     <path class="fil2" d="M23.48 382.9l0 -1.56 -21.12 -21.12 0 4.5 20.78 20.78c0.22,-0.83 0.33,-1.71 0.33,-2.61z"/>
     <polygon class="fil2" points="23.48,381.34 23.48,376.84 2.36,355.72 2.36,360.22 "/>
     <polygon class="fil2" points="23.48,376.84 23.48,372.33 2.36,351.21 2.36,355.72 "/>
     <polygon class="fil2" points="23.48,372.33 23.48,367.83 2.36,346.71 2.36,351.21 "/>
     <polygon class="fil2" points="23.48,367.83 23.48,363.33 2.36,342.21 2.36,346.71 "/>
     <polygon class="fil2" points="23.48,363.33 23.48,358.83 2.36,337.71 2.36,342.21 "/>
     <polygon class="fil2" points="23.48,358.83 23.48,354.33 2.36,333.21 2.36,337.71 "/>
     <polygon class="fil2" points="23.48,354.33 23.48,349.83 2.36,328.71 2.36,333.21 "/>
     <polygon class="fil2" points="23.48,349.83 23.48,345.32 2.36,324.21 2.36,328.71 "/>
     <polygon class="fil2" points="23.48,345.32 23.48,340.82 2.36,319.7 2.36,324.21 "/>
     <polygon class="fil2" points="23.48,340.82 23.48,336.32 2.36,315.2 2.36,319.7 "/>
     <polygon class="fil2" points="23.48,336.32 23.48,331.82 2.36,310.7 2.36,315.2 "/>
     <polygon class="fil2" points="23.48,331.82 23.48,327.32 2.44,306.28 2.36,310.1 2.36,310.7 "/>
     <polygon class="fil2" points="2.44,306.28 23.48,327.32 23.48,322.81 2.54,301.87 "/>
     <polygon class="fil2" points="23.48,322.81 23.48,318.31 2.63,297.46 2.54,301.87 "/>
     <polygon class="fil2" points="23.48,318.31 23.48,313.81 2.72,293.05 2.63,297.46 "/>
     <polygon class="fil2" points="2.72,293.05 23.48,313.81 23.48,309.31 2.81,288.64 "/>
     <polygon class="fil2" points="23.48,309.31 23.48,304.81 2.91,284.23 2.81,288.64 "/>
     <polygon class="fil2" points="2.91,284.23 23.48,304.81 23.48,300.31 3,279.82 "/>
     <polygon class="fil2" points="3,279.82 23.48,300.31 23.48,295.81 3.09,275.41 "/>
     <polygon class="fil2" points="23.48,295.81 23.48,291.3 3.18,271 3.09,275.41 "/>
     <polygon class="fil2" points="23.48,291.3 23.48,286.8 3.28,266.59 3.18,271 "/>
     <polygon class="fil2" points="3.28,266.59 23.48,286.8 23.48,282.3 3.37,262.19 "/>
     <path class="fil2" d="M23.48 282.3l0 -4.5 -19.4 -19.4c-0.24,0.37 -0.46,0.76 -0.66,1.16l-0.05 2.63 20.11 20.11z"/>
     <path class="fil2" d="M4.08 258.4l19.4 19.4 0 -4.5 -17.28 -17.28c-0.81,0.67 -1.53,1.47 -2.13,2.38z"/>
     <path class="fil2" d="M23.48 273.3l0 -4.5 -14.45 -14.45c-1.02,0.4 -1.98,0.97 -2.83,1.67l17.28 17.28z"/>
     <path class="fil2" d="M9.04 254.35l14.45 14.45 0 -4.5 -10.69 -10.69c-1.3,0.02 -2.58,0.27 -3.76,0.74z"/>
     <path class="fil2" d="M12.96 253.61l-0.04 0 -0.01 0 -0.01 0 -0.01 0 -0.01 0 -0.09 0 10.69 10.69 0 -0.13c0,-2.87 -1.16,-5.52 -3.07,-7.45l-0.04 -0.04c-1.36,-1.35 -3.1,-2.35 -5.08,-2.8 -0.78,-0.18 -1.56,-0.27 -2.33,-0.27z"/>
     <path class="fil2" d="M20.41 256.72c-0.01,-0.01 -0.03,-0.03 -0.04,-0.04l0.04 0.04z"/>
     <path class="fil2" d="M109.55 177.2l-22.2 0c-5.83,0 -10.56,4.73 -10.56,10.56 0,35.22 -28.65,63.87 -63.87,63.87 -35.22,0 -63.87,-28.65 -63.87,-63.87 0,-5.83 -4.73,-10.56 -10.56,-10.56l-22.2 0c-5.83,0 -10.56,4.73 -10.56,10.56 0,5.83 4.73,10.56 10.56,10.56l12.29 0c5.22,41.9 41.05,74.43 84.34,74.43 43.29,0 79.12,-32.53 84.34,-74.43l12.29 0c5.83,0 10.56,-4.73 10.56,-10.56 0,-5.83 -4.73,-10.56 -10.56,-10.56z"/>
     <path class="fil2" d="M7.49 18.19c78.19,0 141.8,63.61 141.8,141.8 0,65.15 -44.08,121.71 -107.19,137.54 -5.66,1.42 -9.09,7.15 -7.67,12.81 1.42,5.66 7.15,9.09 12.81,7.67 72.52,-18.19 123.17,-83.17 123.17,-158.02 0,-89.83 -73.08,-162.92 -162.91,-162.92l0 21.12z"/>
     <path class="fil2" d="M4.38 -2.97l-0.07 0 -0.01 0 -0.01 0 -0.01 0 -0.01 0 -0.01 0 -0.01 0 -0.01 0 -0.01 0 -0.01 0 -0.01 0 -0.01 0 -0.01 0 -0.01 0 -0.01 0 -0.01 0 -0.01 0 -0.01 0 -0.01 0 -0.01 0 -0.01 0 -0.01 0 -0.01 0 -0.01 0 -0.01 0 -0.01 0 -0.01 0c-0.09,0 -0.18,0 -0.27,0 -6.01,0.12 -10.86,4.94 -10.84,10.78 0.02,5.84 4.91,10.49 10.92,10.38 1.28,-0.02 2.56,-0.03 3.83,-0.02l1.33 -20.99c-1.53,-0.02 -3.16,-0.15 -4.72,-0.15z"/>
    </g>
   </g>
  </g>
  <path class="fil3" d="M13.45 4.03l376.5 0c5.2,0 9.41,4.22 9.41,9.41l0 376.5c0,5.2 -4.22,9.41 -9.41,9.41l-376.5 0c-5.2,-0 -9.41,-4.22 -9.41,-9.41l-0 -376.5c0,-5.2 4.22,-9.41 9.41,-9.41z"/>
  <g id="_2251265076512">
   <path class="fil4" d="M214.91 192.82l0 -6.03 -12.07 0c-1.94,0 -3.52,-1.58 -3.52,-3.52l0 -0c0,-1.94 1.58,-3.52 3.52,-3.52l12.07 0 0 -6.03 -12.07 0c-1.94,0 -3.52,-1.58 -3.52,-3.52l0 -0c0,-1.94 1.58,-3.52 3.52,-3.52l12.07 0 0 -6.03 -12.07 0c-1.94,0 -3.52,-1.58 -3.52,-3.52l0 -0c0,-1.94 1.58,-3.52 3.52,-3.52l11.79 0c-1.71,-10.63 -10.95,-18.78 -22.05,-18.78 -11.11,0 -20.34,8.15 -22.05,18.78l11.73 0c1.94,0 3.52,1.58 3.52,3.52l0 0c0,1.94 -1.58,3.52 -3.52,3.52l-12.02 0 0 6.03 12.02 0c1.94,0 3.52,1.58 3.52,3.52l0 0c0,1.94 -1.58,3.52 -3.52,3.52l-12.02 0 0 6.03 12.02 0c1.94,0 3.52,1.58 3.52,3.52l0 0c0,1.94 -1.58,3.52 -3.52,3.52l-12.02 0 0 6.03 12.02 0c1.94,0 3.52,1.58 3.52,3.52l0 0c0,1.94 -1.58,3.52 -3.52,3.52l-11.64 0c1.94,10.36 11.05,18.22 21.96,18.22 10.91,0 20.02,-7.87 21.96,-18.22l-11.69 0c-1.94,0 -3.52,-1.58 -3.52,-3.52l0 -0c0,-1.94 1.58,-3.52 3.52,-3.52l12.07 0z"/>
   <path class="fil4" d="M197.44 289.82l0 -54.75c0,-2.27 -1.57,-4.24 -3.78,-4.75 -0.36,-0.08 -0.72,-0.12 -1.08,-0.13l-0.02 0c-1.83,0 -3.55,1.04 -4.38,2.75l-0.49 23.31 0 33.56c0,2.69 2.18,4.87 4.87,4.87 2.69,0 4.87,-2.18 4.87,-4.87z"/>
   <path class="fil4" d="M192.57 294.7l0 0 0 0 0 0 0 0 0 0 0 0 0 0 0 0 0.03 -0 -4.93 -4.93 0 0.06c0,2.69 2.18,4.87 4.87,4.87z"/>
   <path class="fil4" d="M187.7 287.69l0 2.08 4.93 4.93c0.61,-0.01 1.2,-0.13 1.74,-0.34l-6.67 -6.67z"/>
   <path class="fil4" d="M187.7 287.69l6.67 6.67c0.48,-0.19 0.92,-0.45 1.31,-0.77l-7.97 -7.97 0 2.08z"/>
   <path class="fil4" d="M187.7 283.54l0 2.08 7.97 7.97c0.38,-0.31 0.71,-0.68 0.98,-1.1l-8.95 -8.95z"/>
   <path class="fil4" d="M187.7 281.46l0 2.08 8.95 8.95c0.29,-0.44 0.5,-0.92 0.64,-1.44l-9.59 -9.59z"/>
   <path class="fil4" d="M197.44 289.84l0 -0.72 -9.74 -9.74 0 2.08 9.59 9.59c0.1,-0.38 0.15,-0.79 0.15,-1.2z"/>
   <polygon class="fil4" points="197.44,289.12 197.44,287.05 187.7,277.3 187.7,279.38 "/>
   <polygon class="fil4" points="197.44,287.05 197.44,284.97 187.7,275.23 187.7,277.3 "/>
   <polygon class="fil4" points="197.44,284.97 197.44,282.89 187.7,273.15 187.7,275.23 "/>
   <polygon class="fil4" points="197.44,282.89 197.44,280.82 187.7,271.07 187.7,273.15 "/>
   <polygon class="fil4" points="197.44,280.82 197.44,278.74 187.7,269 187.7,271.07 "/>
   <polygon class="fil4" points="197.44,278.74 197.44,276.66 187.7,266.92 187.7,269 "/>
   <polygon class="fil4" points="197.44,276.66 197.44,274.59 187.7,264.84 187.7,266.92 "/>
   <polygon class="fil4" points="197.44,274.59 197.44,272.51 187.7,262.77 187.7,264.84 "/>
   <polygon class="fil4" points="197.44,272.51 197.44,270.43 187.7,260.69 187.7,262.77 "/>
   <polygon class="fil4" points="197.44,270.43 197.44,268.36 187.7,258.61 187.7,260.69 "/>
   <polygon class="fil4" points="197.44,268.36 197.44,266.28 187.7,256.54 187.7,258.61 "/>
   <polygon class="fil4" points="197.44,266.28 197.44,264.2 187.74,254.5 187.7,256.26 187.7,256.54 "/>
   <polygon class="fil4" points="187.74,254.5 197.44,264.2 197.44,262.13 187.78,252.46 "/>
   <polygon class="fil4" points="197.44,262.13 197.44,260.05 187.82,250.43 187.78,252.46 "/>
   <polygon class="fil4" points="197.44,260.05 197.44,257.97 187.87,248.4 187.82,250.43 "/>
   <polygon class="fil4" points="187.87,248.4 197.44,257.97 197.44,255.9 187.91,246.36 "/>
   <polygon class="fil4" points="197.44,255.9 197.44,253.82 187.95,244.33 187.91,246.36 "/>
   <polygon class="fil4" points="187.95,244.33 197.44,253.82 197.44,251.74 187.99,242.29 "/>
   <polygon class="fil4" points="187.99,242.29 197.44,251.74 197.44,249.67 188.04,240.26 "/>
   <polygon class="fil4" points="197.44,249.67 197.44,247.59 188.08,238.23 188.04,240.26 "/>
   <polygon class="fil4" points="197.44,247.59 197.44,245.51 188.12,236.19 188.08,238.23 "/>
   <polygon class="fil4" points="188.12,236.19 197.44,245.51 197.44,243.44 188.16,234.16 "/>
   <path class="fil4" d="M197.44 243.44l0 -2.08 -8.95 -8.95c-0.11,0.17 -0.21,0.35 -0.3,0.54l-0.03 1.21 9.28 9.28z"/>
   <path class="fil4" d="M188.49 232.41l8.95 8.95 0 -2.08 -7.97 -7.97c-0.38,0.31 -0.71,0.68 -0.98,1.1z"/>
   <path class="fil4" d="M197.44 239.28l0 -2.08 -6.66 -6.66c-0.47,0.19 -0.91,0.45 -1.31,0.77l7.97 7.97z"/>
   <path class="fil4" d="M190.78 230.54l6.66 6.66 0 -2.08 -4.93 -4.93c-0.6,0.01 -1.19,0.13 -1.73,0.34z"/>
   <path class="fil4" d="M192.59 230.2l-0.02 0 -0 0 -0 0 -0 0 -0 0 -0.04 0 4.93 4.93 0 -0.06c0,-1.32 -0.53,-2.55 -1.42,-3.44l-0.02 -0.02c-0.63,-0.62 -1.43,-1.08 -2.34,-1.29 -0.36,-0.08 -0.72,-0.12 -1.08,-0.13z"/>
   <path class="fil4" d="M196.02 231.63c-0.01,-0.01 -0.01,-0.01 -0.02,-0.02l0.02 0.02z"/>
   <path class="fil4" d="M237.15 194.95l-10.24 0c-2.69,0 -4.87,2.18 -4.87,4.87 0,16.25 -13.22,29.46 -29.47,29.46 -16.25,0 -29.47,-13.22 -29.47,-29.46 0,-2.69 -2.18,-4.87 -4.87,-4.87l-10.24 0c-2.69,0 -4.87,2.18 -4.87,4.87 0,2.69 2.18,4.87 4.87,4.87l5.67 0c2.41,19.33 18.94,34.34 38.91,34.34 19.97,0 36.5,-15.01 38.91,-34.34l5.67 0c2.69,0 4.87,-2.18 4.87,-4.87 0,-2.69 -2.18,-4.87 -4.87,-4.87z"/>
   <path class="fil4" d="M190.07 121.6c36.07,0 65.41,29.34 65.41,65.41 0,30.06 -20.33,56.15 -49.45,63.45 -2.61,0.65 -4.19,3.3 -3.54,5.91 0.65,2.61 3.3,4.19 5.91,3.54 33.46,-8.39 56.82,-38.37 56.82,-72.9 0,-41.44 -33.71,-75.16 -75.16,-75.16l0 9.74z"/>
   <path class="fil4" d="M188.63 111.83l-0.03 0 -0 0 -0 0 -0 0 -0 0 -0 0 -0 0 -0 0 -0 0 -0 0 -0 0 -0 0 -0 0 -0 0 -0 0 -0 0 -0 0 -0 0 -0 0 -0 0 -0 0 -0 0 -0 0 -0 0 -0 0 -0 0 -0 0c-0.04,0 -0.08,0 -0.12,0 -2.77,0.05 -5.01,2.28 -5,4.97 0.01,2.7 2.27,4.84 5.04,4.79 0.59,-0.01 1.18,-0.01 1.77,-0.01l0.61 -9.68c-0.71,-0.01 -1.46,-0.07 -2.18,-0.07z"/>
  </g>
 </g>
</svg>
