<?xml version="1.0" encoding="UTF-8"?>
<!DOCTYPE svg PUBLIC "-//W3C//DTD SVG 1.1//EN" "http://www.w3.org/Graphics/SVG/1.1/DTD/svg11.dtd">
<!-- Creator: CorelDRAW 2021 (64-Bit) -->
<svg xmlns="http://www.w3.org/2000/svg" xml:space="preserve" width="79.375mm" height="79.375mm" version="1.1" style="shape-rendering:geometricPrecision; text-rendering:geometricPrecision; image-rendering:optimizeQuality; fill-rule:evenodd; clip-rule:evenodd"
viewBox="0 0 383.06 383.06"
 xmlns:xlink="http://www.w3.org/1999/xlink"
 xmlns:xodm="http://www.corel.com/coreldraw/odm/2003">
 <defs>
  <style type="text/css">
   <![CDATA[
    .fil3 {fill:none;fill-rule:nonzero}
    .fil4 {fill:#8A06BE}
    .fil2 {fill:#EAB5FF}
    .fil6 {fill:#FCFFFB}
    .fil7 {fill:#FDFDFE}
    .fil5 {fill:white}
    .fil0 {fill:#F2D1FF;fill-rule:nonzero}
    .fil1 {fill:#FAFAFA;fill-rule:nonzero;fill-opacity:0.000000}
   ]]>
  </style>
   <clipPath id="id0" style="clip-rule:nonzero">
    <path d="M12.77 3.83l357.52 0c4.94,0 8.94,4 8.94,8.94l0 357.52c0,4.93 -4,8.94 -8.94,8.94l-357.52 0c-4.93,-0 -8.94,-4 -8.94,-8.94l-0 -357.52c0,-4.94 4,-8.94 8.94,-8.94z"/>
   </clipPath>
   <clipPath id="id1" style="clip-rule:nonzero">
    <path d="M12.77 3.83l357.52 0c4.94,0 8.94,4 8.94,8.94l0 357.52c0,4.93 -4,8.94 -8.94,8.94l-357.52 0c-4.93,-0 -8.94,-4 -8.94,-8.94l-0 -357.52c0,-4.94 4,-8.94 8.94,-8.94z"/>
   </clipPath>
 </defs>
 <g id="Layer_x0020_1">
  <metadata id="CorelCorpID_0Corel-Layer"/>
  <path class="fil0" d="M12.77 0l357.52 0c7.05,0 12.77,5.72 12.77,12.77l0 357.52c0,7.05 -5.72,12.77 -12.77,12.77l-357.52 0c-7.05,-0 -12.77,-5.72 -12.77,-12.77l-0 -357.52c0,-7.05 5.72,-12.77 12.77,-12.77z"/>
  <g style="clip-path:url(#id0)">
   <polygon class="fil1" points="3.83,3.83 379.23,3.83 379.23,379.23 3.83,379.23 "/>
  </g>
  <g style="clip-path:url(#id1)">
   <g id="_2306626461632">
    <path id="_1" class="fil2" d="M206.69 191.26c24.09,21.41 36.13,49.96 36.13,78.5 0,30.33 -13.83,59.77 -38.36,80.73 -25.42,21.41 -60.22,32.56 -100.81,32.56l-130.69 0c-4.91,0 -8.92,-4.01 -8.92,-9.37l0 -36.13 74.49 -111.51 -74.49 0 0 -217.22c0,-4.9 4.01,-9.37 8.92,-9.37l130.69 0c91.44,0 139.16,57.1 139.16,113.3 0,29.88 -12.93,57.98 -36.13,78.5zm-142.05 -138.23l56.23 0c32.58,0 59.24,26.66 59.24,59.24 0,31.58 -25.05,57.6 -56.26,59.17l0.03 10.77 -14.73 -10.7 -44.51 0c-32.58,0 -59.24,-26.66 -59.24,-59.24 0,-32.58 26.66,-59.24 59.24,-59.24zm-0.69 260.45l39.7 0c47.72,0 69.58,-22.75 69.58,-43.71 0,-18.29 -16.51,-37.47 -51.74,-42.37l-57.54 86.09z"/>
    <path class="fil2" d="M64.5 71.15l54.56 0c22.28,0 40.51,18.23 40.51,40.51 0,22.28 -18.23,40.51 -40.51,40.51l-54.56 0c-22.28,0 -40.51,-18.23 -40.51,-40.51 0,-22.28 18.23,-40.51 40.51,-40.51zm54.82 25.49c-19.6,6.09 -10.65,35.81 9.54,29.94 19.16,-5.57 11.77,-36.57 -9.54,-29.94zm-66.11 0.15c-19.6,7.91 -8.82,35.91 10.67,29.74 19.29,-6.11 9.73,-37.97 -10.67,-29.74z"/>
   </g>
  </g>
  <path class="fil3" d="M12.77 3.83l357.52 0c4.94,0 8.94,4 8.94,8.94l0 357.52c0,4.93 -4,8.94 -8.94,8.94l-357.52 0c-4.93,-0 -8.94,-4 -8.94,-8.94l-0 -357.52c0,-4.94 4,-8.94 8.94,-8.94z"/>
  <g id="_2306626460816">
   <path class="fil4" d="M238.4 191.53c10.93,9.72 16.4,22.68 16.4,35.63 0,13.77 -6.28,27.13 -17.41,36.65 -11.54,9.72 -27.34,14.78 -45.76,14.78l-59.33 0c-2.23,0 -4.05,-1.82 -4.05,-4.25l0 -16.4 33.81 -50.62 -33.81 0 0 -98.61c0,-2.23 1.82,-4.25 4.05,-4.25l59.33 0c41.51,0 63.17,25.92 63.17,51.43 0,13.56 -5.87,26.32 -16.4,35.63zm-64.79 55.48l18.02 0c21.66,0 31.59,-10.33 31.59,-19.84 0,-8.3 -7.49,-17.01 -23.49,-19.23l-26.12 39.08zm-13.77 -110.75l0 39.48 31.79 0c21.66,0 31.59,-10.33 31.59,-19.84 0,-9.52 -9.92,-19.64 -31.59,-19.64l-31.79 0z"/>
   <rect class="fil5" x="147.02" y="128.78" width="79.31" height="53.79" rx="44.37" ry="7.13"/>
   <rect class="fil4" x="155.47" y="137.01" width="61.54" height="36.78" rx="34.43" ry="4.87"/>
   <polygon class="fil5" points="200.81,187.42 200.8,181.78 193.2,181.89 "/>
   <path class="fil6" d="M168.73 148.64c-8.9,3.59 -4.01,16.3 4.84,13.5 8.76,-2.77 4.42,-17.24 -4.84,-13.5z"/>
   <path class="fil7" d="M198.74 148.57c-8.9,2.76 -4.84,16.26 4.33,13.59 8.7,-2.53 5.35,-16.6 -4.33,-13.59z"/>
  </g>
 </g>
</svg>
