<?xml version="1.0" encoding="UTF-8"?>
<!DOCTYPE svg PUBLIC "-//W3C//DTD SVG 1.1//EN" "http://www.w3.org/Graphics/SVG/1.1/DTD/svg11.dtd">
<!-- Creator: CorelDRAW 2021 (64-Bit) -->
<svg xmlns="http://www.w3.org/2000/svg" xml:space="preserve" width="79.375mm" height="79.375mm" version="1.1" style="shape-rendering:geometricPrecision; text-rendering:geometricPrecision; image-rendering:optimizeQuality; fill-rule:evenodd; clip-rule:evenodd"
viewBox="0 0 453.48 453.48"
 xmlns:xlink="http://www.w3.org/1999/xlink"
 xmlns:xodm="http://www.corel.com/coreldraw/odm/2003">
 <defs>
  <style type="text/css">
   <![CDATA[
    .fil4 {fill:none;fill-rule:nonzero}
    .fil6 {fill:#0A3152}
    .fil3 {fill:#97D5FC}
    .fil7 {fill:white}
    .fil5 {fill:#0A3152;fill-rule:nonzero}
    .fil2 {fill:#97D5FC;fill-rule:nonzero}
    .fil0 {fill:#B6E2FE;fill-rule:nonzero}
    .fil1 {fill:#FAFAFA;fill-rule:nonzero;fill-opacity:0.000000}
   ]]>
  </style>
   <clipPath id="id0" style="clip-rule:nonzero">
    <path d="M15.12 4.53l423.25 0c5.84,0 10.58,4.74 10.58,10.58l0 423.25c0,5.84 -4.74,10.58 -10.58,10.58l-423.25 0c-5.84,-0 -10.58,-4.74 -10.58,-10.58l-0 -423.25c0,-5.84 4.74,-10.58 10.58,-10.58z"/>
   </clipPath>
   <clipPath id="id1" style="clip-rule:nonzero">
    <path d="M15.12 4.53l423.25 0c5.84,0 10.58,4.74 10.58,10.58l0 423.25c0,5.84 -4.74,10.58 -10.58,10.58l-423.25 0c-5.84,-0 -10.58,-4.74 -10.58,-10.58l-0 -423.25c0,-5.84 4.74,-10.58 10.58,-10.58z"/>
   </clipPath>
 </defs>
 <g id="Layer_x0020_1">
  <metadata id="CorelCorpID_0Corel-Layer"/>
  <path class="fil0" d="M15.12 0l423.25 0c8.35,0 15.12,6.77 15.12,15.12l0 423.25c0,8.35 -6.77,15.12 -15.12,15.12l-423.25 0c-8.35,-0 -15.12,-6.77 -15.12,-15.12l-0 -423.25c0,-8.35 6.77,-15.12 15.12,-15.12z"/>
  <g style="clip-path:url(#id0)">
   <polygon class="fil1" points="4.53,4.53 448.95,4.53 448.95,448.95 4.53,448.95 "/>
  </g>
  <g style="clip-path:url(#id1)">
   <g id="_2250844324928">
    <g>
     <path id="_1" class="fil2" d="M-100.29 31.37c-0.34,-0.93 -0.7,-1.85 -1.09,-2.76 -2.82,-6.64 -6.61,-12.34 -11.62,-16.94 -5.1,-4.69 -10.79,-8.34 -17.27,-11.13 -6.62,-2.85 -13.62,-4.32 -21.25,-4.32 -7.47,0 -14.45,1.5 -21.09,4.32 -6.64,2.82 -12.46,6.48 -17.27,11.13 -4.81,4.64 -8.65,10.31 -11.46,16.94 -2.81,6.63 -4.42,13.64 -4.32,20.92l1.39 102.73c16.91,-47.53 59.67,-95.79 103.98,-120.9z"/>
     <path class="fil2" d="M244.55 440.21c0,7.64 -1.49,14.61 -4.32,21.09 -2.82,6.48 -6.48,12.12 -11.13,16.94 -4.82,4.81 -10.29,8.63 -16.77,11.29 -6.64,2.66 -13.45,3.98 -20.75,3.98 -7.47,0 -14.45,-1.33 -21.42,-3.98 -6.81,-2.66 -12.62,-6.31 -17.77,-11.13 -4.98,-4.82 -8.97,-10.46 -11.96,-16.94 -2.99,-6.48 -4.48,-13.61 -4.48,-21.25l0 -184.97c0,-2.66 0.33,-4.65 1,-5.98 -0.67,-16.27 -3.99,-31.55 -9.96,-45.83 -5.98,-14.11 -14.12,-26.57 -24.41,-37.19 -10.29,-10.63 -22.25,-19.09 -36.03,-25.24 -13.78,-6.14 -29.06,-9.13 -45.66,-9.13 -16.94,0 -32.54,2.99 -46.82,9.13 -14.28,6.14 -26.4,14.78 -36.53,25.74 -10.13,10.96 -18.1,23.75 -23.91,38.52 -5.81,14.78 -8.8,30.55 -8.8,47.49l0 187.46c0,7.64 -1.33,14.78 -3.98,21.25 -2.66,6.48 -6.48,12.12 -11.29,16.94 -4.82,4.82 -10.46,8.47 -16.77,11.13 -6.31,2.66 -13.28,3.98 -20.92,3.98 -7.47,0 -14.45,-1.33 -21.09,-3.98 -6.64,-2.66 -12.62,-6.48 -17.77,-11.29 -5.15,-4.82 -9.3,-10.46 -12.29,-16.94 -2.99,-6.48 -4.48,-13.45 -4.48,-21.09l0 -187.8c0,-31.88 5.81,-61.77 17.27,-89.5 11.46,-27.73 27.23,-51.97 47.32,-72.73 20.09,-20.76 43.84,-37.03 71.23,-48.98 27.56,-11.96 56.95,-17.93 88.67,-17.93 31.88,0 61.44,5.98 88.67,17.93 27.23,11.95 50.81,28.23 70.9,48.98 19.93,20.75 35.53,45 46.99,72.73 11.46,27.73 17.27,57.62 17.27,89.5l0 187.8z"/>
     <path class="fil3" d="M-77.2 442.44l171.85 -59.4 0 -157.64c0,-10.27 -1.89,-20.24 -6.21,-29.59 -4.16,-9.01 -9.82,-16.98 -17,-23.81 -7.26,-6.9 -15.62,-12.2 -24.9,-15.98 -9.39,-3.82 -19.16,-5.76 -29.3,-5.76 -11.5,0 -22.66,2.58 -33.28,6.9 -11.34,4.61 -21.61,11.02 -30.7,19.22 -9.12,8.22 -16.48,17.87 -22.11,28.78 -5.66,10.96 -8.35,22.67 -8.35,35.01l0 202.28z"/>
     <path class="fil3" d="M65.45 297.36c5.84,0 10.58,4.73 10.58,10.58 0,5.84 -4.74,10.58 -10.58,10.58 -5.84,0 -10.58,-4.74 -10.58,-10.58 0,-5.84 4.74,-10.58 10.58,-10.58z"/>
    </g>
   </g>
  </g>
  <path class="fil4" d="M15.12 4.53l423.25 0c5.84,0 10.58,4.74 10.58,10.58l0 423.25c0,5.84 -4.74,10.58 -10.58,10.58l-423.25 0c-5.84,-0 -10.58,-4.74 -10.58,-10.58l-0 -423.25c0,-5.84 4.74,-10.58 10.58,-10.58z"/>
  <g id="_2250844324688">
   <path class="fil5" d="M176.94 137.95c-0.14,-0.39 -0.29,-0.77 -0.45,-1.15 -1.17,-2.76 -2.75,-5.13 -4.83,-7.04 -2.12,-1.95 -4.49,-3.47 -7.18,-4.63 -2.75,-1.18 -5.66,-1.8 -8.84,-1.8 -3.11,0 -6.01,0.62 -8.77,1.8 -2.76,1.17 -5.18,2.7 -7.18,4.63 -2,1.93 -3.6,4.29 -4.76,7.04 -1.17,2.76 -1.84,5.67 -1.8,8.7l0.58 42.73c7.03,-19.77 24.82,-39.84 43.24,-50.28z"/>
   <path class="fil5" d="M320.36 307.98c0,3.18 -0.62,6.08 -1.8,8.77 -1.17,2.69 -2.69,5.04 -4.63,7.04 -2,2 -4.28,3.59 -6.98,4.7 -2.76,1.1 -5.59,1.66 -8.63,1.66 -3.11,0 -6.01,-0.55 -8.91,-1.66 -2.83,-1.1 -5.25,-2.62 -7.39,-4.63 -2.07,-2 -3.73,-4.35 -4.97,-7.04 -1.24,-2.69 -1.86,-5.66 -1.86,-8.84l0 -76.93c0,-1.1 0.14,-1.93 0.41,-2.49 -0.28,-6.77 -1.66,-13.12 -4.14,-19.06 -2.49,-5.87 -5.87,-11.05 -10.15,-15.47 -4.28,-4.42 -9.25,-7.94 -14.99,-10.5 -5.73,-2.55 -12.08,-3.8 -18.99,-3.8 -7.04,0 -13.53,1.24 -19.47,3.8 -5.94,2.56 -10.98,6.15 -15.19,10.7 -4.21,4.56 -7.53,9.88 -9.94,16.02 -2.42,6.15 -3.66,12.71 -3.66,19.75l0 77.96c0,3.18 -0.55,6.15 -1.66,8.84 -1.1,2.69 -2.69,5.04 -4.7,7.04 -2,2 -4.35,3.52 -6.97,4.63 -2.62,1.1 -5.53,1.66 -8.7,1.66 -3.11,0 -6.01,-0.55 -8.77,-1.66 -2.76,-1.1 -5.25,-2.69 -7.39,-4.7 -2.14,-2 -3.87,-4.35 -5.11,-7.04 -1.24,-2.69 -1.86,-5.59 -1.86,-8.77l0 -78.1c0,-13.26 2.42,-25.69 7.18,-37.22 4.76,-11.53 11.33,-21.61 19.68,-30.25 8.36,-8.63 18.23,-15.4 29.63,-20.37 11.46,-4.97 23.69,-7.46 36.88,-7.46 13.26,0 25.55,2.49 36.88,7.46 11.32,4.97 21.13,11.74 29.49,20.37 8.29,8.63 14.78,18.71 19.54,30.25 4.76,11.53 7.18,23.96 7.18,37.22l0 78.1z"/>
   <path class="fil6" d="M186.55 308.91l71.47 -24.7 0 -65.56c0,-4.27 -0.79,-8.42 -2.58,-12.31 -1.73,-3.75 -4.08,-7.06 -7.07,-9.9 -3.02,-2.87 -6.5,-5.08 -10.36,-6.65 -3.9,-1.59 -7.97,-2.39 -12.19,-2.39 -4.78,0 -9.42,1.07 -13.84,2.87 -4.72,1.92 -8.99,4.58 -12.77,7.99 -3.79,3.42 -6.85,7.43 -9.2,11.97 -2.35,4.56 -3.47,9.43 -3.47,14.56l0 84.13z"/>
   <path class="fil7" d="M245.88 248.57c2.43,0 4.4,1.97 4.4,4.4 0,2.43 -1.97,4.4 -4.4,4.4 -2.43,0 -4.4,-1.97 -4.4,-4.4 0,-2.43 1.97,-4.4 4.4,-4.4z"/>
  </g>
 </g>
</svg>
