<?xml version="1.0" encoding="UTF-8"?>
<!DOCTYPE svg PUBLIC "-//W3C//DTD SVG 1.1//EN" "http://www.w3.org/Graphics/SVG/1.1/DTD/svg11.dtd">
<!-- Creator: CorelDRAW 2021 (64-Bit) -->
<svg xmlns="http://www.w3.org/2000/svg" xml:space="preserve" width="79.375mm" height="79.375mm" version="1.1" style="shape-rendering:geometricPrecision; text-rendering:geometricPrecision; image-rendering:optimizeQuality; fill-rule:evenodd; clip-rule:evenodd"
viewBox="0 0 403.34 403.34"
 xmlns:xlink="http://www.w3.org/1999/xlink"
 xmlns:xodm="http://www.corel.com/coreldraw/odm/2003">
 <defs>
  <style type="text/css">
   <![CDATA[
    .fil3 {fill:none;fill-rule:nonzero}
    .fil4 {fill:#010873}
    .fil2 {fill:#BABEF5}
    .fil0 {fill:#CFD2FF;fill-rule:nonzero}
    .fil1 {fill:#6DB8A0;fill-rule:nonzero;fill-opacity:0.000000}
   ]]>
  </style>
   <clipPath id="id0" style="clip-rule:nonzero">
    <path d="M13.44 4.03l376.45 0c5.2,0 9.41,4.21 9.41,9.41l0 376.45c0,5.2 -4.21,9.41 -9.41,9.41l-376.45 0c-5.2,-0 -9.41,-4.22 -9.41,-9.41l-0 -376.45c0,-5.2 4.22,-9.41 9.41,-9.41z"/>
   </clipPath>
   <clipPath id="id1" style="clip-rule:nonzero">
    <path d="M13.44 4.03l376.45 0c5.2,0 9.41,4.21 9.41,9.41l0 376.45c0,5.2 -4.21,9.41 -9.41,9.41l-376.45 0c-5.2,-0 -9.41,-4.22 -9.41,-9.41l-0 -376.45c0,-5.2 4.22,-9.41 9.41,-9.41z"/>
   </clipPath>
 </defs>
 <g id="Layer_x0020_1">
  <metadata id="CorelCorpID_0Corel-Layer"/>
  <path class="fil0" d="M13.44 0l376.45 0c7.42,0 13.44,6.02 13.44,13.44l0 376.45c0,7.42 -6.02,13.44 -13.44,13.44l-376.45 0c-7.42,-0 -13.44,-6.02 -13.44,-13.45l-0 -376.45c0,-7.42 6.02,-13.44 13.45,-13.44z"/>
  <g style="clip-path:url(#id0)">
   <polygon class="fil1" points="4.03,4.03 399.31,4.03 399.31,399.31 4.03,399.31 "/>
  </g>
  <g style="clip-path:url(#id1)">
   <g id="_2386319132320">
    <g>
     <path id="_1" class="fil2" d="M40.15 269.16l36.99 0c8.25,0 15.41,-8.09 15.41,-14.9 0,-5.63 -0.69,-9.53 -5.25,-13.76 -3.04,-2.82 -6.43,-4.27 -12.21,-4.23 -12.62,0.09 -35.09,1.97 -45.23,-3.07 -1.88,-0.93 -3.57,-1.65 -5.29,-2.93 -8.55,-6.35 -14.23,-15.55 -14.23,-26.88 0,-13.95 9.25,-26.24 22.01,-30.9 9.77,-3.56 37.44,-1.98 51.45,-1.98 7.62,0 75.04,0.69 79.15,-0.48 12.06,-3.44 15.78,-18.94 7.06,-27.67 -2.04,-2.04 -6.33,-4.73 -10.17,-4.73l-119.7 0c-16.08,0 -32.98,8.57 -43.54,19.13 -10.56,10.56 -19.13,27.46 -19.13,43.54 0,13.5 0.87,19.36 6.17,31.33 2.7,6.09 8.44,13.85 12.96,18.38 4.53,4.53 12.29,10.27 18.38,12.97 6.57,2.91 15.78,6.17 25.17,6.17z"/>
     <path class="fil2" d="M-37.94 277.38c10.89,0 17.47,-6.58 17.47,-17.47 0,-8.72 -12.08,-16.7 -16.49,-38.99 -3.98,-20.14 -1.54,-38.18 7.75,-56.06 10.9,-20.96 32.2,-37.1 56.22,-41.9 4.04,-0.81 6.65,-0.87 11,-1.33 6.83,-0.72 12.68,0.35 18.15,-6.51 5.16,-6.46 4.7,-16.15 -1.22,-22.07 -5.06,-5.06 -9.41,-4.73 -15.3,-4.73 -10.46,0 -25.87,2.9 -35.09,6.52 -7.61,2.99 -16.39,6.86 -23.07,11.35 -5.02,3.38 -11.73,8.03 -15.95,12.3 -9.05,9.18 -15.17,15.12 -21.8,27 -11.77,21.11 -15.57,35.73 -15.57,62.52 0,13.88 4.97,32.28 9.58,41.79 4.59,9.46 5.36,11.05 11.58,20.28 1,1.49 1.74,2.38 3.13,3.55 2.26,1.9 5.64,3.74 9.62,3.74z"/>
     <path class="fil2" d="M39.12 318.48l87.34 0c4.38,0 8.1,-2.23 10.42,-4.48 7.62,-7.35 6.52,-20.22 -2.6,-25.95 -5.25,-3.3 -10.06,-2.45 -18.1,-2.45 -19.78,0 -64.15,0.73 -81.14,-0.55 -6.16,-0.46 -11.82,-2.01 -16.99,-3.56 -4.93,-1.48 -11.76,-5.14 -15.41,-5.14 -8.94,0 -16.95,7.12 -16.95,15.93 0,6.46 1.68,10.73 7.11,14.47 9.48,6.53 34,11.73 46.32,11.73z"/>
     <path class="fil2" d="M42.2 219.84l51.38 0c8.25,0 15.41,-8.09 15.41,-14.9 0,-5.34 -0.55,-9.07 -4.73,-13.25 -2.04,-2.04 -6.33,-4.73 -10.17,-4.73l-52.4 0c-7.31,0 -14.9,6.77 -14.9,17.47 0,7.93 7.48,15.41 15.41,15.41z"/>
     <path class="fil2" d="M130.06 267.11l34.93 0c4.38,0 8.1,-2.24 10.42,-4.48 11.24,-10.85 1.98,-28.4 -9.91,-28.4l-35.96 0c-7.31,0 -14.9,6.77 -14.9,17.47 0,8.01 7.44,15.41 15.41,15.41z"/>
     <path class="fil2" d="M91.52 121.2l34.94 0c8.25,0 15.41,-8.09 15.41,-14.9 0,-5.34 -0.55,-9.07 -4.73,-13.25 -2.04,-2.04 -6.33,-4.73 -10.17,-4.73l-35.96 0c-3.84,0 -8.13,2.7 -10.17,4.73 -10.14,10.14 -2.94,28.15 10.68,28.15z"/>
     <path class="fil2" d="M147.01 216.24c6.86,0 35.46,0.95 40.08,-1.02 1.5,-0.64 2.51,-1.64 4.1,-2.06l0 -26.71c-2.61,-0.7 -4.67,-3.08 -8.73,-3.08l-35.96 0c-7.31,0 -14.9,6.77 -14.9,17.47 0,8.07 7.34,15.41 15.41,15.41z"/>
     <path class="fil2" d="M234.88 216.24c-6.86,0 -87.09,0.96 -91.71,-1.02 -1.5,-0.64 -2.51,-1.64 -4.11,-2.07l0 -26.71c2.61,-0.7 4.67,-3.08 8.73,-3.08l87.6 0c7.31,0 14.9,6.77 14.9,17.47 0,8.07 -7.34,15.41 -15.41,15.41z"/>
    </g>
   </g>
  </g>
  <path class="fil3" d="M13.44 4.03l376.45 0c5.2,0 9.41,4.21 9.41,9.41l0 376.45c0,5.2 -4.21,9.41 -9.41,9.41l-376.45 0c-5.2,-0 -9.41,-4.22 -9.41,-9.41l-0 -376.45c0,-5.2 4.22,-9.41 9.41,-9.41z"/>
  <g id="_2386319137408">
   <path class="fil4" d="M165.13 250.64l27.55 0c6.14,0 11.48,-6.03 11.48,-11.1 0,-4.19 -0.51,-7.09 -3.91,-10.24 -2.27,-2.1 -4.79,-3.18 -9.09,-3.15 -9.4,0.07 -26.13,1.46 -33.68,-2.28 -1.4,-0.69 -2.66,-1.23 -3.94,-2.18 -6.36,-4.73 -10.59,-11.58 -10.59,-20.01 0,-10.39 6.89,-19.54 16.39,-23.01 7.27,-2.65 27.88,-1.47 38.31,-1.47 5.67,0 55.88,0.51 58.94,-0.36 8.98,-2.56 11.75,-14.11 5.25,-20.6 -1.52,-1.52 -4.71,-3.52 -7.57,-3.52l-89.14 0c-11.98,0 -24.56,6.38 -32.42,14.25 -7.87,7.87 -14.25,20.45 -14.25,32.42 0,10.06 0.65,14.42 4.6,23.33 2.01,4.54 6.28,10.31 9.65,13.68 3.37,3.37 9.15,7.64 13.68,9.65 4.89,2.16 11.75,4.6 18.74,4.6z"/>
   <path class="fil4" d="M106.98 256.76c8.11,0 13.01,-4.9 13.01,-13.01 0,-6.5 -9,-12.43 -12.28,-29.04 -2.97,-14.99 -1.15,-28.43 5.77,-41.75 8.11,-15.61 23.98,-27.63 41.87,-31.2 3.01,-0.6 4.95,-0.65 8.19,-0.99 5.09,-0.54 9.44,0.26 13.52,-4.85 3.84,-4.81 3.5,-12.03 -0.91,-16.44 -3.76,-3.76 -7,-3.52 -11.4,-3.52 -7.79,0 -19.26,2.16 -26.13,4.86 -5.66,2.23 -12.21,5.11 -17.18,8.45 -3.74,2.51 -8.74,5.98 -11.88,9.16 -6.74,6.83 -11.3,11.26 -16.24,20.11 -8.77,15.72 -11.59,26.6 -11.59,46.56 0,10.33 3.7,24.04 7.14,31.12 3.42,7.04 3.99,8.23 8.62,15.1 0.75,1.11 1.3,1.78 2.33,2.64 1.68,1.42 4.2,2.78 7.16,2.78z"/>
   <path class="fil4" d="M164.36 287.37l65.04 0c3.26,0 6.03,-1.66 7.76,-3.33 5.67,-5.47 4.85,-15.06 -1.94,-19.33 -3.91,-2.46 -7.49,-1.83 -13.48,-1.83 -14.73,0 -47.77,0.54 -60.42,-0.41 -4.59,-0.35 -8.8,-1.49 -12.65,-2.65 -3.67,-1.1 -8.76,-3.83 -11.48,-3.83 -6.66,0 -12.62,5.3 -12.62,11.86 0,4.81 1.25,7.99 5.29,10.78 7.06,4.86 25.32,8.73 34.5,8.73z"/>
   <path class="fil4" d="M166.66 213.92l38.26 0c6.14,0 11.48,-6.03 11.48,-11.09 0,-3.97 -0.41,-6.75 -3.52,-9.87 -1.52,-1.52 -4.71,-3.52 -7.57,-3.52l-39.02 0c-5.44,0 -11.09,5.04 -11.09,13.01 0,5.9 5.57,11.48 11.48,11.48z"/>
   <path class="fil4" d="M232.08 249.11l26.01 0c3.26,0 6.03,-1.66 7.76,-3.33 8.37,-8.08 1.48,-21.15 -7.38,-21.15l-26.78 0c-5.44,0 -11.09,5.04 -11.09,13.01 0,5.96 5.54,11.48 11.48,11.48z"/>
   <path class="fil4" d="M203.39 140.46l26.02 0c6.14,0 11.48,-6.03 11.48,-11.09 0,-3.97 -0.41,-6.75 -3.52,-9.87 -1.52,-1.52 -4.71,-3.52 -7.57,-3.52l-26.78 0c-2.86,0 -6.06,2.01 -7.57,3.52 -7.55,7.55 -2.19,20.96 7.95,20.96z"/>
   <path class="fil4" d="M244.7 211.24c5.11,0 26.4,0.71 29.84,-0.76 1.12,-0.48 1.87,-1.22 3.06,-1.54l0 -19.89c-1.94,-0.52 -3.48,-2.3 -6.5,-2.3l-26.78 0c-5.44,0 -11.09,5.04 -11.09,13.01 0,6.01 5.47,11.48 11.48,11.48z"/>
   <path class="fil4" d="M310.13 211.24c-5.11,0 -64.85,0.71 -68.29,-0.76 -1.12,-0.48 -1.87,-1.22 -3.06,-1.54l0 -19.89c1.94,-0.52 3.48,-2.3 6.5,-2.3l65.23 0c5.44,0 11.09,5.04 11.09,13.01 0,6.01 -5.47,11.48 -11.48,11.48z"/>
  </g>
 </g>
</svg>
