<svg width="48" height="48" viewBox="0 0 48 48" fill="none" xmlns="http://www.w3.org/2000/svg">
<path fill-rule="evenodd" clip-rule="evenodd" d="M20.1795 14.5H28.5554C31.7652 14.5 34.3674 17.1612 34.3674 20.4437V21.1859L34.3676 21.2024L34.3674 21.2189V26.5201L34.3676 26.5366L34.3674 26.5531V27.5563C34.3674 30.8388 31.7652 33.5 28.5554 33.5H20.1795C16.9696 33.5 14.3674 30.8388 14.3674 27.5563V20.4437C14.3674 17.1612 16.9696 14.5 20.1795 14.5ZM32.9139 20.4437V20.4592H29.7178L29.5348 20.4643C27.7776 20.5624 26.3822 22.0491 26.3822 23.8695C26.3833 25.7531 27.8758 27.2787 29.7174 27.2798H32.9139V27.5563C32.9139 30.0179 30.9625 32.0135 28.5554 32.0135H20.1795C17.7724 32.0135 15.821 30.0179 15.821 27.5563V20.4437C15.821 17.9821 17.7724 15.9865 20.1795 15.9865H28.5554C30.9625 15.9865 32.9139 17.9821 32.9139 20.4437ZM29.7183 21.9457L32.9139 21.9457V25.7933H29.7178L29.5708 25.7874C28.6003 25.7102 27.8363 24.8811 27.8357 23.869C27.8357 22.8074 28.6783 21.9463 29.7183 21.9457ZM30.8884 23.8084C30.8884 23.3979 30.563 23.0652 30.1616 23.0652H29.8596L29.7609 23.072C29.4062 23.1212 29.1328 23.4322 29.1328 23.8084C29.1328 24.2189 29.4582 24.5517 29.8596 24.5517H30.1616L30.2602 24.5449C30.615 24.4957 30.8884 24.1847 30.8884 23.8084ZM25.4481 19.7406C25.4481 19.3301 25.1227 18.9974 24.7213 18.9974H19.4895L19.3908 19.0041C19.0361 19.0534 18.7627 19.3643 18.7627 19.7406C18.7627 20.1511 19.0881 20.4839 19.4895 20.4839H24.7213L24.8199 20.4771C25.1747 20.4279 25.4481 20.1169 25.4481 19.7406Z" fill="#F20D6B"/>
<rect x="1.35718" y="0.5" width="46.0204" height="47" rx="23.0102" stroke="#F20D6B"/>
</svg>
