<svg width="80" height="80" viewBox="0 0 80 80" fill="none" xmlns="http://www.w3.org/2000/svg">
<path d="M0 18C0 8.05888 8.05887 0 18 0H62C71.9411 0 80 8.05887 80 18V62C80 71.9411 71.9411 80 62 80H18C8.05888 80 0 71.9411 0 62V18Z" fill="#FFCFE2"/>
<g clip-path="url(#clip0_333_2985)">
<path d="M30.769 49.5C31.0961 48.5729 31.7028 47.7701 32.5053 47.2022C33.3078 46.6344 34.2667 46.3294 35.2498 46.3294C36.233 46.3294 37.1919 46.6344 37.9944 47.2022C38.7969 47.7701 39.4036 48.5729 39.7307 49.5H55.8332V52.6667H39.7307C39.4036 53.5938 38.7969 54.3966 37.9944 54.9644C37.1919 55.5323 36.233 55.8372 35.2498 55.8372C34.2667 55.8372 33.3078 55.5323 32.5053 54.9644C31.7028 54.3966 31.0961 53.5938 30.769 52.6667H24.1665V49.5H30.769ZM40.269 38.4167C40.5961 37.4896 41.2028 36.6868 42.0053 36.1189C42.8078 35.5511 43.7667 35.2461 44.7498 35.2461C45.733 35.2461 46.6919 35.5511 47.4944 36.1189C48.2969 36.6868 48.9036 37.4896 49.2307 38.4167H55.8332V41.5833H49.2307C48.9036 42.5104 48.2969 43.3132 47.4944 43.8811C46.6919 44.4489 45.733 44.7539 44.7498 44.7539C43.7667 44.7539 42.8078 44.4489 42.0053 43.8811C41.2028 43.3132 40.5961 42.5104 40.269 41.5833H24.1665V38.4167H40.269ZM30.769 27.3333C31.0961 26.4062 31.7028 25.6034 32.5053 25.0356C33.3078 24.4677 34.2667 24.1628 35.2498 24.1628C36.233 24.1628 37.1919 24.4677 37.9944 25.0356C38.7969 25.6034 39.4036 26.4062 39.7307 27.3333H55.8332V30.5H39.7307C39.4036 31.4271 38.7969 32.2299 37.9944 32.7977C37.1919 33.3656 36.233 33.6705 35.2498 33.6705C34.2667 33.6705 33.3078 33.3656 32.5053 32.7977C31.7028 32.2299 31.0961 31.4271 30.769 30.5H24.1665V27.3333H30.769ZM35.2498 30.5C35.6698 30.5 36.0725 30.3332 36.3694 30.0362C36.6664 29.7393 36.8332 29.3366 36.8332 28.9167C36.8332 28.4967 36.6664 28.094 36.3694 27.7971C36.0725 27.5001 35.6698 27.3333 35.2498 27.3333C34.8299 27.3333 34.4272 27.5001 34.1303 27.7971C33.8333 28.094 33.6665 28.4967 33.6665 28.9167C33.6665 29.3366 33.8333 29.7393 34.1303 30.0362C34.4272 30.3332 34.8299 30.5 35.2498 30.5ZM44.7498 41.5833C45.1698 41.5833 45.5725 41.4165 45.8694 41.1196C46.1664 40.8226 46.3332 40.4199 46.3332 40C46.3332 39.5801 46.1664 39.1773 45.8694 38.8804C45.5725 38.5835 45.1698 38.4167 44.7498 38.4167C44.3299 38.4167 43.9272 38.5835 43.6303 38.8804C43.3333 39.1773 43.1665 39.5801 43.1665 40C43.1665 40.4199 43.3333 40.8226 43.6303 41.1196C43.9272 41.4165 44.3299 41.5833 44.7498 41.5833ZM35.2498 52.6667C35.6698 52.6667 36.0725 52.4999 36.3694 52.2029C36.6664 51.906 36.8332 51.5033 36.8332 51.0833C36.8332 50.6634 36.6664 50.2607 36.3694 49.9637C36.0725 49.6668 35.6698 49.5 35.2498 49.5C34.8299 49.5 34.4272 49.6668 34.1303 49.9637C33.8333 50.2607 33.6665 50.6634 33.6665 51.0833C33.6665 51.5033 33.8333 51.906 34.1303 52.2029C34.4272 52.4999 34.8299 52.6667 35.2498 52.6667Z" fill="#F20D6B"/>
</g>
<defs>
<clipPath id="clip0_333_2985">
<rect width="38" height="38" fill="white" transform="translate(21 21)"/>
</clipPath>
</defs>
</svg>
