<svg width="50" height="50" viewBox="0 0 50 50" fill="none" xmlns="http://www.w3.org/2000/svg">
<path d="M49.9633 21.8828L48.229 3.56641C48.1411 2.61719 47.3852 1.86719 46.436 1.77344L28.1196 0.0390625H28.0962C27.9087 0.0390625 27.7622 0.0976563 27.6508 0.208984L0.211393 27.6484C0.157074 27.7026 0.11398 27.767 0.0845767 27.8379C0.0551735 27.9088 0.0400391 27.9848 0.0400391 28.0615C0.0400391 28.1383 0.0551735 28.2142 0.0845767 28.2851C0.11398 28.356 0.157074 28.4204 0.211393 28.4746L21.5278 49.791C21.6391 49.9023 21.7856 49.9609 21.9438 49.9609C22.102 49.9609 22.2485 49.9023 22.3598 49.791L49.7993 22.3516C49.9165 22.2285 49.9751 22.0586 49.9633 21.8828ZM21.938 43.9082L6.09421 28.0645L29.5141 4.64453L43.9868 6.01562L45.3579 20.4883L21.938 43.9082ZM34.8462 10C32.0044 10 29.6899 12.3145 29.6899 15.1562C29.6899 17.998 32.0044 20.3125 34.8462 20.3125C37.688 20.3125 40.0024 17.998 40.0024 15.1562C40.0024 12.3145 37.688 10 34.8462 10ZM34.8462 17.0312C33.809 17.0312 32.9712 16.1934 32.9712 15.1562C32.9712 14.1191 33.809 13.2812 34.8462 13.2812C35.8833 13.2812 36.7212 14.1191 36.7212 15.1562C36.7212 16.1934 35.8833 17.0312 34.8462 17.0312Z" fill="black"/>
</svg>
