<svg width="60" height="60" viewBox="0 0 60 60" fill="none" xmlns="http://www.w3.org/2000/svg">
<path fill-rule="evenodd" clip-rule="evenodd" d="M5.05371 31.6726C5.05371 25.7245 9.73855 20.8697 15.6193 20.5971L16.1412 20.5851H18.4737C19.5092 20.5851 20.3487 21.4245 20.3487 22.4601C20.3487 23.4093 19.6433 24.1938 18.7281 24.318L18.4737 24.3351H16.1412C12.234 24.3351 9.03937 27.3901 8.81617 31.2415L8.80371 31.6726L8.80371 43.8601C8.80371 47.7652 11.859 50.9594 15.7101 51.1826L16.1412 51.1951H43.9662C47.8732 51.1951 51.068 48.1403 51.2913 44.2909L51.3037 43.8601V31.6476C51.3037 27.7542 48.2597 24.57 44.4231 24.3475L43.9937 24.3351H41.6362C40.6007 24.3351 39.7612 23.4956 39.7612 22.4601C39.7612 21.5108 40.4666 20.7263 41.3818 20.6022L41.6362 20.5851H43.9937C49.9218 20.5851 54.7614 25.2521 55.041 31.1117L55.0537 31.6476V43.8601C55.0537 49.8062 50.3684 54.6605 44.4881 54.933L43.9662 54.9451H16.1412C10.1936 54.9451 5.33837 50.2607 5.06578 44.3818L5.05371 43.8601L5.05371 31.6726ZM28.6993 4.17947C29.0406 3.82318 29.5211 3.60132 30.0535 3.60132C30.5912 3.60132 31.076 3.82767 31.4179 4.1903L38.6718 11.474C39.4025 12.2077 39.4 13.3949 38.6663 14.1256C37.9993 14.7899 36.9575 14.8483 36.2246 14.3021L36.0147 14.1202L31.9285 10.02L31.9285 35.5788C31.9285 36.6144 31.089 37.4538 30.0535 37.4538C29.1042 37.4538 28.3197 36.7484 28.1956 35.8332L28.1785 35.5788L28.1785 10.0158L24.0945 14.1199C23.4303 14.7871 22.3888 14.8499 21.6535 14.3069L21.4428 14.1258C20.7757 13.4617 20.7129 12.4201 21.2559 11.6849L21.4369 11.4742L28.6993 4.17947Z" fill="#F20D6B"/>
</svg>
