<svg width="50" height="48" viewBox="0 0 50 48" fill="none" xmlns="http://www.w3.org/2000/svg">
<path fill-rule="evenodd" clip-rule="evenodd" d="M14.5301 0.25H35.4699C43.4945 0.25 50 6.90289 50 15.1094V16.965C50.0003 16.9786 50.0004 16.9923 50.0004 17.006C50.0004 17.0198 50.0003 17.0334 50 17.0471V30.3004C50.0003 30.314 50.0004 30.3277 50.0004 30.3414C50.0004 30.3552 50.0003 30.3688 50 30.3825V32.8906C50 41.0971 43.4945 47.75 35.4699 47.75H14.5301C6.50547 47.75 0 41.0971 0 32.8906V15.1094C0 6.90289 6.50547 0.25 14.5301 0.25ZM46.3661 15.1094V15.1479H38.3759L37.9184 15.1608C33.5253 15.4061 30.0368 19.1228 30.0368 23.6737C30.0396 28.3827 33.7709 32.1967 38.3748 32.1996H46.3661V32.8906C46.3661 39.0447 41.4876 44.0337 35.4699 44.0337H14.5301C8.51244 44.0337 3.63394 39.0447 3.63394 32.8906V15.1094C3.63394 8.95534 8.51244 3.96629 14.5301 3.96629H35.4699C41.4876 3.96629 46.3661 8.95534 46.3661 15.1094ZM38.3771 18.8642L46.3661 18.8642V28.4833H38.3759L38.0083 28.4686C35.5822 28.2755 33.6723 26.2028 33.6708 23.6726C33.6708 21.0186 35.7773 18.8658 38.3771 18.8642ZM41.3024 23.5211C41.3024 22.4949 40.4889 21.6629 39.4854 21.6629H38.7303L38.4838 21.6799C37.5969 21.803 36.9133 22.5804 36.9133 23.5211C36.9133 24.5473 37.7268 25.3792 38.7303 25.3792H39.4854L39.732 25.3623C40.6188 25.2392 41.3024 24.4618 41.3024 23.5211ZM27.7017 13.3516C27.7017 12.3253 26.8882 11.4934 25.8847 11.4934H12.8051L12.5585 11.5104C11.6716 11.6334 10.9881 12.4108 10.9881 13.3516C10.9881 14.3778 11.8016 15.2097 12.8051 15.2097H25.8847L26.1313 15.1927C27.0181 15.0697 27.7017 14.2923 27.7017 13.3516Z" fill="black"/>
</svg>
