<?xml version="1.0" encoding="utf-8"?>
<!-- Generator: Adobe Illustrator 26.0.0, SVG Export Plug-In . SVG Version: 6.00 Build 0)  -->
<svg version="1.1" id="Layer_1" xmlns="http://www.w3.org/2000/svg" xmlns:xlink="http://www.w3.org/1999/xlink" x="0px" y="0px"
	 viewBox="0 0 909.46 188.7" style="enable-background:new 0 0 909.46 188.7;" xml:space="preserve">
<style type="text/css">
	.st0{fill:#F20C6A;}
	.st1{fill-rule:evenodd;clip-rule:evenodd;fill:#F20C6A;}
</style>
<g>
	<path class="st0" d="M209.17,79.53V52.06l-5.81-0.45c-10.72,0-20.7,2.61-29.93,7.82c-9.53,5.36-17.01,12.55-22.45,21.55
		c-5.44,9.01-8.15,18.8-8.15,29.37l0.22,64.11h26.13l-0.45-60.09c0-6.55,1.64-12.43,4.91-17.65c3.13-5.36,7.41-9.64,12.84-12.84
		s11.28-4.8,17.53-4.8C204.77,79.08,206.49,79.23,209.17,79.53L209.17,79.53z"/>
	<path class="st1" d="M274.49,84.6c-5.11,0.3-10.2,1.94-14.69,4.99c-7.76,5.27-12.26,13.72-12.76,22.56v3.28
		c0.21,3.74,1.15,7.5,2.87,11.05c4.71,9.74,14.23,15.8,24.51,16.45h3.63c2.31-0.14,4.63-0.57,6.93-1.29c0.87-0.26,1.5-1.06,1.5-2
		c0-1.15-0.93-2.09-2.09-2.09c-0.24,0-0.46,0.04-0.67,0.11l0.01,0c-11.87,3.73-24.64-1.79-30.05-12.99
		c-5.42-11.2-1.81-24.64,8.48-31.62s24.11-5.38,32.52,3.78c8.12,8.84,8.64,21.66,1.62,31.25c-2.2-0.73-3.78-2-5.02-3.97
		c-1.45-2.31-2.36-5.71-2.53-10.32v-0.03c0-6.89-5.63-12.52-12.52-12.52s-12.52,5.63-12.52,12.52s5.63,12.52,12.52,12.52
		c3.81,0,7.24-1.72,9.54-4.43c0.5,1.66,1.15,3.15,1.99,4.47c1.96,3.12,4.96,5.21,8.6,6.1c0.23,0.09,0.48,0.13,0.74,0.13
		c0.66,0,1.25-0.31,1.63-0.79l0,0c9.1-11.21,8.82-27.12-0.97-37.77c-5.3-5.77-12.46-8.97-19.82-9.4L274.49,84.6z M284.57,113.76
		c0-4.64-3.71-8.35-8.35-8.35c-4.64,0-8.35,3.71-8.35,8.35c0,4.64,3.71,8.35,8.35,8.35S284.57,118.39,284.57,113.76z"/>
	<path class="st0" d="M306.67,96.23c3.2,5.44,4.8,11.28,4.8,17.53c0,6.4-1.56,12.29-4.69,17.65c-3.28,5.36-7.63,9.64-13.07,12.84
		c-5.44,3.2-11.28,4.8-17.53,4.8c-6.55,0-12.43-1.64-17.65-4.91c-5.36-3.13-9.64-7.41-12.84-12.84s-4.8-11.28-4.8-17.53
		c0-6.55,1.64-12.43,4.91-17.65c3.13-5.36,7.41-9.64,12.84-12.84c5.44-3.2,11.28-4.8,17.53-4.8c6.4,0,12.29,1.56,17.65,4.69
		C299.19,86.44,303.47,90.79,306.67,96.23L306.67,96.23z M311.47,162.9v10.72h25.02l0.22-61.65c0-10.57-2.75-20.4-8.26-29.48
		c-5.51-8.93-12.92-16.05-22.22-21.33c-9.31-5.29-19.32-7.93-30.04-7.93c-10.87,0-20.92,2.68-30.15,8.04
		c-9.38,5.51-16.79,12.92-22.22,22.22c-5.44,9.31-8.15,19.4-8.15,30.27c0,11.02,2.75,21.07,8.26,30.15
		c5.36,9.38,12.69,16.79,22,22.22c9.31,5.44,19.4,8.15,30.27,8.15C288.99,174.29,300.75,170.5,311.47,162.9z"/>
	<path class="st0" d="M430.08,106.33v67.68h25.02l0.45-67.68c0-10.42-2.61-19.81-7.82-28.14c-5.36-7.89-12.29-14.03-20.77-18.43
		s-17.65-6.59-27.47-6.59c-9.53,0-18.61,2.16-27.25,6.48c-8.79,4.47-15.75,10.76-20.88,18.87c-5.14,8.12-7.71,17.39-7.71,27.81
		v67.68h25.02v-67.68c0-8.64,2.98-15.45,8.93-20.44c5.96-4.99,13.25-7.48,21.89-7.48c8.49,0,15.71,2.49,21.67,7.48
		C427.1,90.88,430.08,97.7,430.08,106.33L430.08,106.33z"/>
	<path class="st0" d="M583.3,115.27l-0.22-104.98l-25.02,13.4v40.65c-10.72-7.59-22.49-11.39-35.29-11.39
		c-10.87,0-20.92,2.68-30.15,8.04c-9.38,5.51-16.79,12.92-22.22,22.22c-5.44,9.31-8.15,19.4-8.15,30.27
		c0,11.02,2.75,21.07,8.26,30.15c5.36,9.38,12.69,16.79,22,22.22c9.31,5.44,19.4,8.15,30.27,8.15c10.72,0,20.77-2.68,30.15-8.04
		c9.38-5.36,16.79-12.51,22.22-21.44C580.59,135.59,583.3,125.84,583.3,115.27L583.3,115.27z M553.26,95.95
		c3.2,5.44,4.8,11.28,4.8,17.53c0,6.4-1.56,12.29-4.69,17.65c-3.28,5.36-7.63,9.64-13.07,12.84c-5.44,3.2-11.28,4.8-17.53,4.8
		c-6.55,0-12.43-1.64-17.65-4.91c-5.36-3.13-9.64-7.41-12.84-12.84c-3.2-5.44-4.8-11.28-4.8-17.53c0-6.55,1.64-12.43,4.91-17.65
		c3.13-5.36,7.41-9.64,12.84-12.84c5.44-3.2,11.28-4.8,17.53-4.8c6.4,0,12.29,1.56,17.65,4.69
		C545.78,86.16,550.06,90.51,553.26,95.95L553.26,95.95z"/>
	<path class="st0" d="M637.58,148.77l-29.93-3.13l-10.05,23.01l35.07,3.57c15.34,0.45,27.59-1.97,36.74-7.26
		c9.16-5.29,15-13.14,17.53-23.57c0.74-3.72,1.12-6.85,1.12-9.38c0-10.27-5.06-18.24-15.19-23.9c-5.81-2.98-15.41-6.11-28.81-9.38
		c-11.76-3.13-18.32-5.06-19.66-5.81c-4.62-1.79-6.92-4.02-6.92-6.7c0-0.89,0.07-1.71,0.22-2.46c1.34-5.36,6.78-7.97,16.31-7.82
		l31.94,2.9l8.04-21.67c-15.78-2.38-29.41-3.57-40.88-3.57c-9.53,0-16.98,0.97-22.34,2.9c-6.4,2.23-11.47,6.48-15.19,12.73
		c-3.72,6.25-5.58,13.1-5.58,20.55c0,6.11,1.64,11.17,4.91,15.19c3.28,4.02,7.74,7.3,13.4,9.83c5.66,2.53,13.03,5.06,22.11,7.59
		l7.59,1.79c9.38,2.23,14.67,3.72,15.86,4.47c4.02,1.94,6.03,4.69,6.03,8.26c0,1.04-0.07,1.79-0.22,2.23
		c-0.74,3.42-2.83,5.92-6.25,7.48C650.02,148.21,644.73,148.92,637.58,148.77L637.58,148.77z"/>
	<g>
		<path class="st0" d="M15.29,22.35l-0.22,93.81c0,10.72,2.75,20.48,8.26,29.26c5.51,9.08,12.92,16.27,22.22,21.55
			c9.31,5.29,19.32,7.93,30.04,7.93c11.02,0,21.15-2.75,30.38-8.26c9.23-5.36,16.57-12.69,22-22c5.44-9.31,8.15-19.4,8.15-30.27
			s-2.68-21-8.04-30.38c-5.51-9.23-12.96-16.57-22.34-22s-19.43-8.15-30.15-8.15c-13.1,0-24.87,3.87-35.29,11.62V35.75L15.29,22.35z
			 M46.56,131.24c-2.98-5.14-4.47-10.76-4.47-16.86c0-6.11,1.49-11.76,4.47-16.98c2.98-5.21,7.04-9.31,12.17-12.29
			c5.14-2.98,10.76-4.47,16.86-4.47c6.11,0,11.76,1.49,16.98,4.47c5.21,3.13,9.31,7.26,12.29,12.4c2.98,5.14,4.47,10.76,4.47,16.86
			c0,5.96-1.49,11.54-4.47,16.75c-3.13,5.21-7.26,9.31-12.4,12.29c-5.14,2.98-10.76,4.47-16.86,4.47c-5.96,0-11.54-1.49-16.75-4.47
			C53.63,140.43,49.54,136.38,46.56,131.24L46.56,131.24z"/>
	</g>
</g>
<g>
	<path class="st0" d="M698.14,169.85c3.19,3.19,7.09,4.79,11.69,4.79c4.6,0,8.5-1.6,11.69-4.79c3.19-3.19,4.79-7.09,4.79-11.69
		c0-4.45-1.6-8.27-4.79-11.47c-3.19-3.19-7.09-4.79-11.69-4.79s-8.5,1.6-11.69,4.79c-3.19,3.19-4.79,7.01-4.79,11.47
		C693.35,162.77,694.95,166.66,698.14,169.85z"/>
	<path class="st0" d="M766.16,174.64V53.74h-29.17v120.9H766.16z M739.33,38.49c3.19,3.19,7.09,4.79,11.69,4.79
		c4.6,0,8.5-1.6,11.69-4.79c3.19-3.19,4.79-7.09,4.79-11.69c0-4.45-1.6-8.27-4.79-11.47c-3.19-3.19-7.09-4.79-11.69-4.79
		c-4.6,0-8.5,1.6-11.69,4.79s-4.79,7.01-4.79,11.47C734.54,31.41,736.14,35.3,739.33,38.49z"/>
	<path class="st0" d="M804.34,166.07c9.28,5.42,19.33,8.13,30.17,8.13c10.98,0,21.08-2.75,30.28-8.24
		c9.2-5.34,16.51-12.65,21.93-21.93s8.13-19.33,8.13-30.17c0-10.84-2.67-20.93-8.02-30.28c-5.49-9.2-12.91-16.51-22.26-21.93
		c-9.35-5.42-19.37-8.13-30.06-8.13c-10.84,0-20.85,2.67-30.06,8.02c-9.35,5.49-16.74,12.88-22.15,22.15
		c-5.42,9.28-8.13,19.33-8.13,30.17c0,10.98,2.75,21,8.24,30.06C787.75,153.27,795.06,160.65,804.34,166.07L804.34,166.07z
		 M851.32,142.8c-5.12,2.97-10.72,4.45-16.81,4.45c-5.94,0-11.5-1.48-16.7-4.45c-5.2-2.97-9.28-7.01-12.25-12.13
		c-2.97-5.12-4.45-10.72-4.45-16.81c0-6.09,1.48-11.73,4.45-16.92c2.97-5.2,7.01-9.24,12.13-12.13c5.12-2.89,10.72-4.34,16.81-4.34
		s11.73,1.48,16.92,4.45c5.2,2.97,9.24,7.01,12.13,12.13c2.89,5.12,4.34,10.72,4.34,16.81c0,5.94-1.48,11.5-4.45,16.7
		C860.48,135.75,856.44,139.83,851.32,142.8z"/>
</g>
</svg>
