<svg width="48" height="48" viewBox="0 0 48 48" fill="none" xmlns="http://www.w3.org/2000/svg">
<path d="M16.976 20.4853C19.4782 24.8813 23.1187 28.5218 27.5147 31.024L29.872 27.7227C30.2511 27.1918 30.8116 26.8183 31.4475 26.6729C32.0834 26.5274 32.7505 26.6201 33.3227 26.9333C37.0942 28.9945 41.2592 30.2341 45.544 30.5707C46.2127 30.6237 46.8369 30.9268 47.2921 31.4195C47.7473 31.9123 48.0001 32.5585 48 33.2293V45.128C48.0001 45.7883 47.7553 46.4251 47.313 46.9152C46.8706 47.4054 46.2621 47.714 45.6053 47.7813C44.192 47.928 42.768 48 41.3333 48C18.5067 48 0 29.4933 0 6.66667C0 5.232 0.072 3.808 0.218667 2.39467C0.286012 1.73786 0.594625 1.12939 1.08477 0.687024C1.57492 0.244659 2.21175 -0.000142287 2.872 6.2046e-08H14.7707C15.4415 -8.40494e-05 16.0877 0.252671 16.5805 0.707869C17.0732 1.16307 17.3763 1.78726 17.4293 2.456C17.7659 6.74078 19.0055 10.9058 21.0667 14.6773C21.3799 15.2495 21.4726 15.9166 21.3271 16.5525C21.1817 17.1884 20.8082 17.7489 20.2773 18.128L16.976 20.4853V20.4853ZM10.2507 18.7333L15.3173 15.1147C13.8794 12.0109 12.8943 8.71691 12.392 5.33333H5.36C5.344 5.776 5.336 6.22133 5.336 6.66667C5.33333 26.5493 21.4507 42.6667 41.3333 42.6667C41.7787 42.6667 42.224 42.6587 42.6667 42.64V35.608C39.2831 35.1057 35.9891 34.1206 32.8853 32.6827L29.2667 37.7493C27.8098 37.1832 26.3947 36.5149 25.032 35.7493L24.8773 35.6613C19.6469 32.6846 15.3154 28.3531 12.3387 23.1227L12.2507 22.968C11.4851 21.6053 10.8168 20.1902 10.2507 18.7333V18.7333Z" fill="#fff"/>
</svg>
