<svg width="18" height="18" viewBox="0 0 18 18" fill="none" xmlns="http://www.w3.org/2000/svg">
<path d="M9.00032 17.3337C4.39783 17.3337 0.666992 13.6028 0.666992 9.00033C0.666992 4.39783 4.39783 0.666992 9.00032 0.666992C13.6028 0.666992 17.3337 4.39783 17.3337 9.00033C17.3337 13.6028 13.6028 17.3337 9.00032 17.3337ZM9.00032 15.667C10.7684 15.667 12.4641 14.9646 13.7144 13.7144C14.9646 12.4641 15.667 10.7684 15.667 9.00033C15.667 7.23222 14.9646 5.53652 13.7144 4.28628C12.4641 3.03604 10.7684 2.33366 9.00032 2.33366C7.23221 2.33366 5.53652 3.03604 4.28628 4.28628C3.03604 5.53652 2.33366 7.23222 2.33366 9.00033C2.33366 10.7684 3.03604 12.4641 4.28628 13.7144C5.53652 14.9646 7.23221 15.667 9.00032 15.667ZM9.83366 9.00033H13.167V10.667H8.16699V4.83366H9.83366V9.00033Z" fill="#F20D6B"/>
</svg>
