<svg width="59" height="54" viewBox="0 0 59 54" fill="none" xmlns="http://www.w3.org/2000/svg">
<path d="M37.933 6.00033C37.5755 7.76013 37.5755 9.57385 37.933 11.3337H7.02901L27.1623 29.099L40.6263 17.0457C41.7623 18.451 43.181 19.6217 44.7943 20.4723L27.1917 36.235L5.66634 17.243V48.667H48.333V21.7337C50.0928 22.0912 51.9065 22.0912 53.6663 21.7337V51.3337C53.6663 52.0409 53.3854 52.7192 52.8853 53.2193C52.3852 53.7194 51.7069 54.0003 50.9997 54.0003H2.99967C2.29243 54.0003 1.61415 53.7194 1.11406 53.2193C0.613959 52.7192 0.333008 52.0409 0.333008 51.3337V8.66699C0.333008 7.95975 0.613959 7.28147 1.11406 6.78137C1.61415 6.28128 2.29243 6.00033 2.99967 6.00033H37.933ZM50.9997 16.667C49.9491 16.667 48.9088 16.4601 47.9382 16.058C46.9676 15.656 46.0857 15.0667 45.3428 14.3238C44.6 13.581 44.0107 12.6991 43.6086 11.7285C43.2066 10.7579 42.9997 9.71757 42.9997 8.66699C42.9997 7.61642 43.2066 6.57613 43.6086 5.60552C44.0107 4.63492 44.6 3.75301 45.3428 3.01014C46.0857 2.26727 46.9676 1.67799 47.9382 1.27596C48.9088 0.873918 49.9491 0.666992 50.9997 0.666992C53.1214 0.666992 55.1562 1.50985 56.6565 3.01014C58.1568 4.51043 58.9997 6.54526 58.9997 8.66699C58.9997 10.7887 58.1568 12.8236 56.6565 14.3238C55.1562 15.8241 53.1214 16.667 50.9997 16.667Z" fill="#fff"/>
</svg>
