<svg width="48" height="59" viewBox="0 0 48 59" fill="none" xmlns="http://www.w3.org/2000/svg">
<path d="M24 50.7338L37.2 37.5338C39.8104 34.9231 41.588 31.597 42.3081 27.9761C43.0282 24.3552 42.6585 20.602 41.2456 17.1913C39.8327 13.7805 37.4401 10.8653 34.3705 8.81423C31.3008 6.76319 27.6918 5.66846 24 5.66846C20.3082 5.66846 16.6992 6.76319 13.6296 8.81423C10.5599 10.8653 8.16733 13.7805 6.75444 17.1913C5.34155 20.602 4.97178 24.3552 5.69188 27.9761C6.41198 31.597 8.18962 34.9231 10.8 37.5338L24 50.7338ZM24 58.2751L7.02934 41.3044C3.67291 37.948 1.38716 33.6716 0.461143 29.016C-0.464879 24.3605 0.0104183 19.5349 1.82693 15.1495C3.64344 10.7641 6.71958 7.01583 10.6664 4.37869C14.6131 1.74155 19.2533 0.333984 24 0.333984C28.7468 0.333984 33.3869 1.74155 37.3337 4.37869C41.2804 7.01583 44.3566 10.7641 46.1731 15.1495C47.9896 19.5349 48.4649 24.3605 47.5389 29.016C46.6129 33.6716 44.3271 37.948 40.9707 41.3044L24 58.2751V58.2751ZM24 29.6671C25.4145 29.6671 26.7711 29.1052 27.7712 28.105C28.7714 27.1048 29.3333 25.7483 29.3333 24.3338C29.3333 22.9193 28.7714 21.5627 27.7712 20.5625C26.7711 19.5623 25.4145 19.0004 24 19.0004C22.5855 19.0004 21.229 19.5623 20.2288 20.5625C19.2286 21.5627 18.6667 22.9193 18.6667 24.3338C18.6667 25.7483 19.2286 27.1048 20.2288 28.105C21.229 29.1052 22.5855 29.6671 24 29.6671ZM24 35.0004C21.171 35.0004 18.4579 33.8766 16.4575 31.8763C14.4571 29.8759 13.3333 27.1628 13.3333 24.3338C13.3333 21.5048 14.4571 18.7917 16.4575 16.7913C18.4579 14.7909 21.171 13.6671 24 13.6671C26.829 13.6671 29.5421 14.7909 31.5425 16.7913C33.5429 18.7917 34.6667 21.5048 34.6667 24.3338C34.6667 27.1628 33.5429 29.8759 31.5425 31.8763C29.5421 33.8766 26.829 35.0004 24 35.0004Z" fill="#F20D6B"/>
</svg>
